<?xml version="1.0" encoding="UTF-8"?>
<svg version="1.1" xmlns="http://www.w3.org/2000/svg" width="500" height="500">
<path d="M0 0 C3.80631558 0.02846223 7.6108805 0.01154969 11.41713619 -0.01720619 C30.02675461 -0.13630938 47.47298136 1.1401095 65.63500977 5.65185547 C66.34480988 5.82324036 67.05460999 5.99462524 67.78591919 6.17120361 C71.47019666 7.07374969 75.08678294 8.11660187 78.69750977 9.27685547 C79.74567871 9.6067749 80.79384766 9.93669434 81.8737793 10.27661133 C97.18331993 15.26597303 112.48410716 21.58729176 126.17797852 30.12841797 C128.66995308 31.67352143 131.21396407 33.00223427 133.82250977 34.33935547 C152.79548907 44.60837755 169.49794258 59.44201392 184.63500977 74.65185547 C185.39040039 75.37244141 186.14579102 76.09302734 186.92407227 76.83544922 C221.69330862 110.38369232 242.77705083 157.03884741 252.63500977 203.65185547 C252.80646011 204.36547745 252.97791046 205.07909943 253.15455627 205.81434631 C253.75948542 209.38699597 253.81476011 212.90520072 253.84375 216.51782227 C253.85353378 217.29608871 253.86331757 218.07435516 253.87339783 218.87620544 C253.90328082 221.45114485 253.92474486 224.02603126 253.94360352 226.60107422 C253.95017534 227.49077219 253.95674717 228.38047016 253.96351814 229.29712868 C253.99611689 234.02790358 254.02053947 238.75865632 254.04003906 243.48950195 C254.05766426 247.35215579 254.0921733 251.21405343 254.14257812 255.07641602 C254.42276366 277.06774797 254.30575514 297.46668006 247.63500977 318.65185547 C247.15062187 320.24705521 247.15062187 320.24705521 246.65644836 321.8744812 C237.73541837 351.19801645 224.32487747 378.32526837 205.63500977 402.65185547 C204.65173435 403.95508813 203.66865509 405.25846881 202.68579102 406.56201172 C197.97657681 412.74011793 193.10494086 418.44538889 187.48657227 423.83544922 C185.50491031 425.70157336 185.50491031 425.70157336 183.57250977 428.27685547 C181.25624039 431.11615342 178.65618344 433.35237202 175.86938477 435.72216797 C174.39300285 436.99722507 172.94386473 438.30460356 171.52563477 439.64404297 C145.32498206 464.30879534 111.01864652 481.94817654 76.88500977 492.52685547 C76.0488916 492.78869629 75.21277344 493.05053711 74.35131836 493.3203125 C58.48264661 498.01021947 42.96056462 500.2751932 26.44750977 500.18310547 C24.68554472 500.18581441 22.92358115 500.18970828 21.16162109 500.19470215 C17.50449104 500.2005316 13.84775707 500.19225012 10.19067383 500.17333984 C5.56539855 500.15055423 0.94105258 500.16371321 -3.68418884 500.1876297 C-7.31195747 500.20226778 -10.93951535 500.19740061 -14.56729126 500.18711853 C-16.27007159 500.18450058 -17.9728728 500.18754105 -19.67562866 500.19703674 C-36.68702724 500.27114771 -52.8267712 497.17580878 -69.05249023 492.08935547 C-70.67405029 491.58335815 -70.67405029 491.58335815 -72.32836914 491.06713867 C-97.80812105 482.84411104 -121.79101497 470.46734178 -143.36499023 454.65185547 C-143.9432959 454.23049316 -144.52160156 453.80913086 -145.11743164 453.375 C-152.3672244 448.05654705 -159.09619817 442.33205745 -165.64624023 436.18310547 C-167.94411987 434.04370029 -170.2815783 431.99166557 -172.67749023 429.96435547 C-175.85642114 427.19498007 -178.63413652 424.25356697 -181.34936523 421.03076172 C-182.8487813 419.26110206 -184.38639574 417.52366666 -185.94311523 415.80419922 C-199.71764421 400.47220126 -211.01563533 382.98968354 -220.36499023 364.65185547 C-220.72141602 363.95286133 -221.0778418 363.25386719 -221.44506836 362.53369141 C-228.67257432 348.1651966 -234.23367451 333.26344804 -238.55249023 317.77685547 C-238.7782373 316.97739502 -239.00398437 316.17793457 -239.23657227 315.35424805 C-240.00994169 312.46634601 -240.68968384 309.56432639 -241.36499023 306.65185547 C-241.61333618 305.67363831 -241.61333618 305.67363831 -241.86669922 304.67565918 C-245.94833689 288.34634691 -246.05026822 272.04353444 -245.99633789 255.32617188 C-245.98710793 252.22369127 -246.00081855 249.12278505 -246.03735352 246.02050781 C-246.2813228 225.09066905 -244.77124753 205.99912036 -239.36499023 185.65185547 C-239.05002594 184.46320892 -239.05002594 184.46320892 -238.72869873 183.25054932 C-237.6394903 179.2608972 -236.38090575 175.35801759 -234.98999023 171.46435547 C-234.60770264 170.35962891 -234.22541504 169.25490234 -233.83154297 168.11669922 C-230.51654646 158.71222059 -226.7655762 149.59740892 -222.36499023 140.65185547 C-221.99825195 139.89533691 -221.63151367 139.13881836 -221.25366211 138.359375 C-213.20022524 121.89479785 -203.1894706 106.66433024 -191.36499023 92.65185547 C-190.60702148 91.71083984 -189.84905273 90.76982422 -189.06811523 89.80029297 C-178.00008866 76.18769485 -165.45172622 63.1515181 -151.36499023 52.65185547 C-150.72658203 52.16942383 -150.08817383 51.68699219 -149.43041992 51.18994141 C-134.01692343 39.58224651 -117.84946597 29.80815246 -100.36499023 21.65185547 C-99.58704102 21.28705078 -98.8090918 20.92224609 -98.00756836 20.54638672 C-84.15657942 14.13003927 -70.12954321 9.4729304 -55.36499023 5.65185547 C-53.9946312 5.29553795 -53.9946312 5.29553795 -52.59658813 4.93202209 C-35.02000241 0.52315095 -17.99766119 -0.13581062 0 0 Z " fill="#B6B6B6" transform="translate(245.364990234375,-0.65185546875)"/>
<path d="M0 0 C3.80631558 0.02846223 7.6108805 0.01154969 11.41713619 -0.01720619 C30.02675461 -0.13630938 47.47298136 1.1401095 65.63500977 5.65185547 C66.34480988 5.82324036 67.05460999 5.99462524 67.78591919 6.17120361 C71.47019666 7.07374969 75.08678294 8.11660187 78.69750977 9.27685547 C79.74567871 9.6067749 80.79384766 9.93669434 81.8737793 10.27661133 C99.33664543 15.96773934 116.33345855 23.45082132 131.63500977 33.65185547 C128.6642489 35.36004297 126.55352427 35.9037453 123.13500977 35.83935547 C122.38219727 35.83291016 121.62938477 35.82646484 120.85375977 35.81982422 C118.63500977 35.65185547 118.63500977 35.65185547 116.76879883 35.15625 C58.68538253 21.4262342 -20.48111878 67.65365739 -69.36499023 95.65185547 C-70.13327148 96.08788086 -70.90155273 96.52390625 -71.69311523 96.97314453 C-100.59464646 113.47601716 -128.45931935 132.77816242 -154.36499023 153.65185547 C-155.75911133 154.77140625 -155.75911133 154.77140625 -157.18139648 155.91357422 C-168.1838339 164.83403658 -178.91481667 174.09105838 -189.36499023 183.65185547 C-190.14471191 184.36390137 -190.14471191 184.36390137 -190.94018555 185.09033203 C-214.57911449 206.69875518 -239.02203172 231.11055468 -241.36499023 264.65185547 C-241.69499023 264.65185547 -242.02499023 264.65185547 -242.36499023 264.65185547 C-242.54840854 276.32948748 -241.69853345 287.00823156 -238.98608398 298.39013672 C-238.38134573 301.56596339 -238.25283408 304.42858505 -238.36499023 307.65185547 C-239.35499023 307.32185547 -240.34499023 306.99185547 -241.36499023 306.65185547 C-245.6916083 289.59304307 -246.05304191 272.80243636 -245.99633789 255.32617188 C-245.98710793 252.22369127 -246.00081855 249.12278505 -246.03735352 246.02050781 C-246.2813228 225.09066905 -244.77124753 205.99912036 -239.36499023 185.65185547 C-239.05002594 184.46320892 -239.05002594 184.46320892 -238.72869873 183.25054932 C-237.6394903 179.2608972 -236.38090575 175.35801759 -234.98999023 171.46435547 C-234.60770264 170.35962891 -234.22541504 169.25490234 -233.83154297 168.11669922 C-230.51654646 158.71222059 -226.7655762 149.59740892 -222.36499023 140.65185547 C-221.99825195 139.89533691 -221.63151367 139.13881836 -221.25366211 138.359375 C-213.20022524 121.89479785 -203.1894706 106.66433024 -191.36499023 92.65185547 C-190.60702148 91.71083984 -189.84905273 90.76982422 -189.06811523 89.80029297 C-178.00008866 76.18769485 -165.45172622 63.1515181 -151.36499023 52.65185547 C-150.72658203 52.16942383 -150.08817383 51.68699219 -149.43041992 51.18994141 C-134.01692343 39.58224651 -117.84946597 29.80815246 -100.36499023 21.65185547 C-99.58704102 21.28705078 -98.8090918 20.92224609 -98.00756836 20.54638672 C-84.15657942 14.13003927 -70.12954321 9.4729304 -55.36499023 5.65185547 C-53.9946312 5.29553795 -53.9946312 5.29553795 -52.59658813 4.93202209 C-35.02000241 0.52315095 -17.99766119 -0.13581062 0 0 Z " fill="#B6B6B6" transform="translate(245.364990234375,-0.65185546875)"/>
<path d="M0 0 C4.12748177 3.62227037 6.22050782 6.9650684 7.23828125 12.41015625 C8.45890571 32.38614502 -4.45867907 57.03991551 -16.74609375 72.265625 C-19.6190477 74.50652908 -22.8016735 73.65684649 -26.30859375 73.484375 C-27.48776677 70.00169011 -27.36989069 69.61244954 -25.6484375 66.015625 C-24.8586537 64.66538198 -24.05715756 63.32194375 -23.24609375 61.984375 C-22.40553661 60.54414314 -21.56700685 59.10272622 -20.73046875 57.66015625 C-20.10881836 56.59595459 -20.10881836 56.59595459 -19.47460938 55.51025391 C-14.86689887 47.50464633 -11.15421607 39.26749773 -8.30859375 30.484375 C-7.96828125 29.49050781 -7.96828125 29.49050781 -7.62109375 28.4765625 C-5.67713724 22.02370687 -4.82904359 13.6285519 -7.11328125 7.23046875 C-8.46517513 5.25564337 -9.5834424 4.42031841 -11.68359375 3.296875 C-12.26882813 2.97332031 -12.8540625 2.64976563 -13.45703125 2.31640625 C-29.98364265 -5.110109 -52.4779702 3.51578259 -68.56494141 8.61767578 C-70.4161824 9.20246894 -72.27012091 9.77878126 -74.12646484 10.34716797 C-90.53945766 15.37870567 -105.88678759 21.96839931 -121.30859375 29.484375 C-122.09733887 29.86625977 -122.88608398 30.24814453 -123.69873047 30.64160156 C-127.60988281 32.54132966 -131.49428129 34.4868668 -135.35839844 36.48046875 C-136.71854211 37.18063284 -138.08139767 37.87554299 -139.44628906 38.56640625 C-168.04432447 53.04579434 -195.02913875 70.80000185 -220.30859375 90.484375 C-221.19933594 91.17402344 -222.09007812 91.86367187 -223.0078125 92.57421875 C-234.0122127 101.23951939 -244.47899335 110.49724923 -254.62744141 120.14477539 C-257.85980408 123.21406016 -261.1257969 126.20890705 -264.5078125 129.11328125 C-276.02912264 139.12798005 -291.94045673 158.09457503 -293.546875 173.81640625 C-293.7322057 180.01035349 -293.01728442 183.47263085 -289.30859375 188.484375 C-285.15485027 192.7602874 -279.84682694 194.5803811 -274.30859375 196.484375 C-273.62329086 196.72942276 -272.93798798 196.97447052 -272.23191833 197.22694397 C-265.66399837 199.41253925 -259.7469026 199.92335945 -252.85546875 199.8828125 C-251.77325546 199.88690628 -250.69104218 199.89100006 -249.57603455 199.8952179 C-246.06993641 199.90126993 -242.56461377 199.88238535 -239.05859375 199.859375 C-237.26163559 199.85389145 -237.26163559 199.85389145 -235.42837524 199.84829712 C-219.91389125 199.79279445 -204.46286675 199.42231322 -188.99609375 198.171875 C-187.88385437 198.08386627 -187.88385437 198.08386627 -186.74914551 197.99407959 C-171.26789383 196.72534542 -156.16255249 193.7803117 -140.99609375 190.484375 C-139.83787109 190.236875 -138.67964844 189.989375 -137.48632812 189.734375 C-124.65801099 187.14343599 -124.65801099 187.14343599 -112.18359375 183.296875 C-107.91166604 182.08959108 -103.71842635 182.32750348 -99.30859375 182.484375 C-98.31859375 179.514375 -98.31859375 179.514375 -97.30859375 176.484375 C-95.65244718 176.10218733 -93.98402351 175.77042398 -92.30859375 175.484375 C-91.30859375 176.484375 -91.30859375 176.484375 -90.93359375 179.234375 C-91.10235766 190.51867369 -99.08266444 203.09166108 -103.5546875 213.26171875 C-106.28645911 219.46291429 -106.28645911 219.46291429 -107.7578125 226.02734375 C-108.66236672 231.70486492 -111.64897807 236.41007115 -114.37109375 241.421875 C-114.93892578 242.48728516 -115.50675781 243.55269531 -116.09179688 244.65039062 C-117.48805729 247.26691224 -118.89381446 249.87783425 -120.30859375 252.484375 C-120.96859375 252.484375 -121.62859375 252.484375 -122.30859375 252.484375 C-122.42307861 253.21366211 -122.53756348 253.94294922 -122.65551758 254.69433594 C-123.32901329 257.57161032 -124.28276754 259.57553957 -125.7578125 262.125 C-126.26876465 263.01767578 -126.7797168 263.91035156 -127.30615234 264.83007812 C-127.86383301 265.78849609 -128.42151367 266.74691406 -128.99609375 267.734375 C-130.1910134 269.81197732 -131.38499202 271.89012111 -132.578125 273.96875 C-133.1963916 275.04318359 -133.8146582 276.11761719 -134.45166016 277.22460938 C-136.25126505 280.38373697 -138.01184165 283.56096651 -139.7578125 286.75 C-152.77359358 310.48673807 -167.82990776 332.71100166 -183.8828125 354.48046875 C-185.34133764 356.42141402 -185.34133764 356.42141402 -186.30859375 358.484375 C-185.64182617 358.39349609 -184.97505859 358.30261719 -184.28808594 358.20898438 C-136.09496958 351.95013809 -83.40175717 352.6593822 -35.61816406 361.86035156 C-31.54023416 362.62925012 -27.45288418 363.33536741 -23.36328125 364.0390625 C-17.29382355 365.0877864 -11.22477847 366.13845911 -5.16015625 367.21484375 C-3.91057129 367.43551514 -2.66098633 367.65618652 -1.37353516 367.88354492 C1.69140625 368.484375 1.69140625 368.484375 4.69140625 369.484375 C4.69140625 370.474375 4.69140625 371.464375 4.69140625 372.484375 C-0.88319893 372.60501041 -6.04304815 372.21385307 -11.53125 371.27734375 C-13.12290448 371.01874852 -14.71462267 370.76054522 -16.30639648 370.50268555 C-17.13259491 370.36680023 -17.95879333 370.23091492 -18.81002808 370.09091187 C-47.91391097 365.32898796 -77.14025625 362.33055943 -106.65234375 362.31640625 C-108.27591986 362.31317641 -109.89949571 362.3098112 -111.52307129 362.30632019 C-114.90471061 362.30038653 -118.28632461 362.29847417 -121.66796875 362.29907227 C-125.08078336 362.29915328 -128.49346304 362.29223984 -131.90625 362.27856445 C-155.64118372 362.14991943 -155.64118372 362.14991943 -179.33984375 363.30859375 C-180.75976624 363.4126226 -180.75976624 363.4126226 -182.20837402 363.51875305 C-188.59077896 364.10814709 -193.72825246 365.57077166 -198.421875 370.19140625 C-199.20353027 370.94369507 -199.20353027 370.94369507 -200.00097656 371.71118164 C-200.53561523 372.23446045 -201.07025391 372.75773926 -201.62109375 373.296875 C-210.00242236 381.2338836 -218.16257396 387.80554002 -230.05859375 388.796875 C-233.26306373 388.48875289 -235.48591108 388.01668845 -238.30859375 386.484375 C-240.30859375 383.484375 -240.30859375 383.484375 -240.37109375 380.171875 C-238.90097814 375.06970904 -236.80864441 373.18296997 -232.30859375 370.484375 C-225.95416953 367.41293937 -219.52117463 364.9481177 -212.6484375 363.34765625 C-202.29493914 360.93558542 -196.53810885 358.60964125 -190.30859375 349.484375 C-189.49986226 348.38004281 -188.68717445 347.27859991 -187.87109375 346.1796875 C-185.28301898 342.66022288 -182.79289662 339.07745727 -180.30859375 335.484375 C-179.55578125 334.40929687 -178.80296875 333.33421875 -178.02734375 332.2265625 C-175.76979646 328.99127465 -173.53161022 325.74343268 -171.30859375 322.484375 C-170.89577148 321.87948242 -170.48294922 321.27458984 -170.05761719 320.65136719 C-164.87499401 313.03263607 -159.88731139 305.36693071 -155.36230469 297.33398438 C-154.15859151 295.22107171 -152.92484009 293.12694951 -151.69140625 291.03125 C-141.42237706 273.40482683 -132.48194991 255.11521526 -123.45996094 236.83032227 C-122.13897434 234.15547368 -120.80909138 231.48572728 -119.46191406 228.82397461 C-118.93307617 227.77862549 -118.40423828 226.73327637 -117.859375 225.65625 C-117.41634033 224.78709961 -116.97330566 223.91794922 -116.5168457 223.02246094 C-114.6860802 219.1767066 -113.22611768 215.20833278 -111.7421875 211.21875 C-108.84810433 203.54397512 -105.52230457 196.02934872 -102.30859375 188.484375 C-107.74153135 189.63192618 -113.10863458 190.93707359 -118.4765625 192.359375 C-119.12327911 192.53033691 -119.76999573 192.70129883 -120.43630981 192.87744141 C-123.12616844 193.58892299 -125.81580557 194.30091162 -128.50219727 195.02539062 C-136.71660558 197.23599592 -144.82238574 198.97212108 -153.27685547 200.05517578 C-155.67786619 200.39508372 -157.88453261 200.82476531 -160.2109375 201.4765625 C-183.45645802 207.70380286 -209.08150691 206.91595518 -232.96192551 206.97701263 C-235.03801295 206.98430273 -237.11393741 206.99890782 -239.18997192 207.01519775 C-283.40248503 207.32034796 -283.40248503 207.32034796 -300.30859375 192.484375 C-304.9924096 187.3075259 -306.58254101 183.81482065 -306.49609375 176.796875 C-306.48642578 175.05857422 -306.48642578 175.05857422 -306.4765625 173.28515625 C-306.30859375 170.484375 -306.30859375 170.484375 -305.30859375 169.484375 C-305.14359375 168.288125 -304.97859375 167.091875 -304.80859375 165.859375 C-299.65525166 142.295905 -272.63538505 119.34187662 -254.6875 105.3671875 C-252.23654268 103.42734936 -249.97026924 101.36453347 -247.68359375 99.234375 C-241.331088 93.46209812 -234.48487189 88.35588714 -227.61914062 83.21679688 C-225.32617137 81.4975545 -223.04382838 79.76486976 -220.76171875 78.03125 C-179.09278894 46.60515947 -55.15949355 -39.15287642 0 0 Z " fill="#F6F6F6" transform="translate(343.30859375,52.515625)"/>
<path d="M0 0 C0.5625 1.9375 0.5625 1.9375 1 4 C0.67 4.33 0.34 4.66 0 5 C-0.71817224 11.98678996 -1.04139278 18.45540424 3.34765625 24.23046875 C13.56500389 35.17245097 28.48774952 39.26164798 43.15209961 40.2021637 C46.60919398 40.29538766 50.06118512 40.32901991 53.51953125 40.3359375 C55.44125908 40.34830193 55.44125908 40.34830193 57.40180969 40.36091614 C60.83239188 40.37954648 64.26277333 40.38189451 67.69339752 40.37755966 C69.82121764 40.37498947 71.94902202 40.37561706 74.07684326 40.37637329 C91.15009546 40.36933987 108.13962474 40.09820742 125.125 38.1875 C125.86771149 38.10481873 126.61042297 38.02213745 127.37564087 37.93695068 C135.4278591 37.00804488 143.30099032 35.62328647 151.17114258 33.66479492 C153.96040284 33.00930552 156.72810664 32.53732864 159.5625 32.125 C172.33145042 30.09549795 184.9320845 26.48052147 197.25 22.6015625 C200.07343626 21.98393582 201.30343398 22.20701945 204 23 C203.46258179 24.24088379 203.46258179 24.24088379 202.91430664 25.50683594 C201.58308621 28.58456745 200.25461618 31.66345596 198.92797852 34.74316406 C198.35387756 36.07436572 197.7786929 37.40510057 197.20239258 38.73535156 C196.37293883 40.65046652 195.54743132 42.56724126 194.72265625 44.484375 C194.22515869 45.63647461 193.72766113 46.78857422 193.21508789 47.97558594 C192.26589074 50.33818475 191.51425983 52.5166313 191 55 C147.35248568 65.18456716 102.87100267 71.25471989 58 72 C57.10958008 72.02046387 56.21916016 72.04092773 55.30175781 72.06201172 C34.00288977 72.52271301 4.81864519 73.02165658 -12.22265625 58.046875 C-17.39865294 52.4776301 -19.53326952 47.14185781 -19.3046875 39.53515625 C-17.77044487 26.76947076 -10.11210275 14.36119439 -2.12890625 4.55078125 C-0.79091097 2.87718624 -0.79091097 2.87718624 0 0 Z " fill="#B5B5B5" transform="translate(38,218)"/>
<path d="M0 0 C5.48204707 4.73955762 8.0363869 10.12968793 9.16015625 17.19921875 C10.54978165 38.87737499 -4.63798501 63.37976805 -15.26953125 81.37109375 C-15.61870605 81.96510986 -15.96788086 82.55912598 -16.32763672 83.17114258 C-18.25565801 86.29937352 -20.02543354 88.70688719 -23.26953125 90.49609375 C-25.62890625 90.7890625 -25.62890625 90.7890625 -28.01953125 90.68359375 C-28.81875 90.65652344 -29.61796875 90.62945312 -30.44140625 90.6015625 C-31.0446875 90.56675781 -31.64796875 90.53195313 -32.26953125 90.49609375 C-33.52419521 86.98436234 -33.37145786 85.71173797 -31.75 82.28125 C-30.99611468 81.03399579 -30.23092153 79.79353503 -29.45703125 78.55859375 C-23.54345609 68.57958217 -18.82655243 58.15136943 -14.26953125 47.49609375 C-13.89957031 46.64515137 -13.52960938 45.79420898 -13.1484375 44.91748047 C-8.53481251 34.15446796 -5.40391617 24.32517487 -7.26953125 12.49609375 C-9.75951753 6.45306116 -12.8278784 3.98093627 -18.8046875 1.40234375 C-23.53921253 0.16400124 -28.0214093 0.1990543 -32.89453125 0.24609375 C-34.36623779 0.25406982 -34.36623779 0.25406982 -35.86767578 0.26220703 C-44.22391272 0.37152028 -51.97046857 1.33899613 -60.04296875 3.51171875 C-64.34910173 4.59606941 -68.60375845 5.00276256 -73.01953125 5.37109375 C-104.97136762 8.47312243 -135.01021652 19.97678538 -163.94091797 33.41992188 C-166.11750005 34.42583232 -168.30263092 35.40945028 -170.4921875 36.38671875 C-181.96409346 41.56608146 -192.82373536 47.74529899 -203.71972656 54.03173828 C-205.82945388 55.24335686 -207.94620225 56.43815133 -210.07421875 57.6171875 C-227.57378985 67.37414261 -244.24747681 78.481529 -260.26953125 90.49609375 C-261.18750488 91.18445313 -261.18750488 91.18445313 -262.12402344 91.88671875 C-278.87608735 104.50877245 -295.05620087 118.04863022 -310.26953125 132.49609375 C-310.83704102 133.03492188 -311.40455078 133.57375 -311.98925781 134.12890625 C-325.00114869 146.5793884 -336.76736179 160.07505609 -343.68359375 176.9453125 C-345.47579189 180.95789404 -347.69853949 184.34417686 -350.20703125 187.93359375 C-357.31243132 198.1282982 -363.92402561 209.60967993 -362.26953125 222.49609375 C-360.92638755 229.09080829 -357.79845646 232.80663985 -352.26953125 236.49609375 C-311.428126 262.3422229 -236.06012091 246.11752351 -191.39453125 238.49609375 C-190.68962555 238.37657349 -189.98471985 238.25705322 -189.25845337 238.13391113 C-180.92710102 236.70389099 -172.73492351 234.98265022 -164.57693481 232.76586914 C-161.05385071 231.83141186 -157.91646496 231.29392204 -154.26953125 231.49609375 C-155.05940996 234.55298656 -155.67827595 236.82587336 -157.26953125 239.49609375 C-160.23542859 240.89833773 -162.23790015 241.50305647 -165.39453125 242.05859375 C-166.73874146 242.33292236 -166.73874146 242.33292236 -168.11010742 242.61279297 C-171.48979296 243.28157817 -174.87880323 243.88577147 -178.26953125 244.49609375 C-179.7235198 244.7742499 -181.17711511 245.05446728 -182.63037109 245.33642578 C-219.38694242 252.44194616 -255.44332697 254.75375859 -292.82237244 254.92140579 C-295.11800732 254.93345454 -297.41352385 254.95167431 -299.70910645 254.97116089 C-351.98223646 255.36984394 -351.98223646 255.36984394 -370.26953125 237.546875 C-376.73253278 230.47796707 -378.84956694 224.82093737 -378.6171875 215.22265625 C-376.68072889 194.46556059 -361.94485653 177.16503731 -348.26953125 162.49609375 C-347.11891306 161.16688737 -345.97286139 159.83371044 -344.83203125 158.49609375 C-338.83508315 151.62459072 -332.31469657 145.25837373 -325.38671875 139.33203125 C-322.8635367 137.14403205 -320.41398606 134.88316262 -317.95703125 132.62109375 C-312.55798562 127.69865352 -306.95559628 123.08058493 -301.26953125 118.49609375 C-299.47741726 117.01746908 -297.68575324 115.53829887 -295.89453125 114.05859375 C-289.78672381 109.07069458 -283.57797104 104.22657705 -277.26953125 99.49609375 C-276.65883789 99.0381543 -276.04814453 98.58021484 -275.41894531 98.10839844 C-254.28212053 82.36044417 -232.14934341 67.58601036 -209.26953125 54.49609375 C-208.17487549 53.86815918 -208.17487549 53.86815918 -207.05810547 53.22753906 C-201.83338996 50.24563392 -196.56496008 47.35028377 -191.26953125 44.49609375 C-189.99698486 43.80845947 -189.99698486 43.80845947 -188.69873047 43.10693359 C-45.24276371 -34.03817683 -45.24276371 -34.03817683 0 0 Z " fill="#080808" transform="translate(382.26953125,41.50390625)"/>
<path d="M0 0 C1 1 1 1 1.25 4.625 C1.20364494 8.96692369 -0.16913146 12.05659084 -2 16 C-2.7715545 18.65134183 -3.38555527 21.3058962 -4 24 C-4.66 24 -5.32 24 -6 24 C-6.12439453 24.7211499 -6.24878906 25.4422998 -6.37695312 26.18530273 C-6.99597941 28.98183646 -7.86457358 31.39576529 -8.96875 34.03515625 C-9.37085693 35.0001001 -9.77296387 35.96504395 -10.18725586 36.95922852 C-10.62046143 37.98330811 -11.05366699 39.0073877 -11.5 40.0625 C-11.9441626 41.12073975 -12.3883252 42.17897949 -12.84594727 43.26928711 C-16.77259043 52.57304298 -20.89486219 61.78218883 -25.08618164 70.96899414 C-25.91114054 72.80250551 -26.70368121 74.65051928 -27.4921875 76.5 C-29.29800998 80.69175373 -31.23323177 84.81339326 -33.1875 88.9375 C-33.55552734 89.71673828 -33.92355469 90.49597656 -34.30273438 91.29882812 C-35.20071283 93.19974355 -36.10019956 95.09994634 -37 97 C-34.69 97.33 -32.38 97.66 -30 98 C-30.2019043 99.921875 -30.2019043 99.921875 -31 102 C-33.12036133 102.765625 -33.12036133 102.765625 -35.76953125 103.25 C-39.62865772 104.28111143 -41.59967274 105.00335233 -43.63671875 108.5 C-44.3525519 109.98488495 -45.0341408 111.48658592 -45.6875 113 C-46.51377855 114.72479543 -47.3448006 116.44732371 -48.1796875 118.16796875 C-48.6240918 119.10302246 -49.06849609 120.03807617 -49.52636719 121.00146484 C-52.25226273 126.54809326 -55.29520261 131.92053448 -58.3125 137.3125 C-58.95316406 138.46234375 -59.59382813 139.6121875 -60.25390625 140.796875 C-76.90365333 170.57881696 -94.6143919 200.09815278 -116.10327148 226.68603516 C-118.78081678 230.0651602 -120.66690514 232.54165342 -121 237 C-119.12475253 236.85738409 -117.24981036 236.71075143 -115.375 236.5625 C-114.33085937 236.48128906 -113.28671875 236.40007812 -112.2109375 236.31640625 C-109.09216632 236.05642296 -109.09216632 236.05642296 -106.41479492 235.51367188 C-101.99679336 234.84909225 -97.61275271 234.65515639 -93.15234375 234.46484375 C-92.19700241 234.42164001 -91.24166107 234.37843628 -90.25737 234.33392334 C-18.20713555 231.13617451 53.32832364 236.11737639 124 251 C124.33 252.65 124.66 254.3 125 256 C117.50186104 255.730767 110.4843016 254.76732479 103.1875 253.11328125 C93.61361205 251.0266309 84.03417962 249.62145348 74.3125 248.4375 C73.46852661 248.33294495 72.62455322 248.22838989 71.75500488 248.1206665 C65.83950073 247.38886153 59.92079194 246.6875567 54 246 C52.69530762 245.84644043 51.39061523 245.69288086 50.04638672 245.53466797 C27.96463478 243.00686098 5.77287645 242.05847631 -16.41699219 241.00146484 C-17.66723175 240.9418457 -18.91747131 240.88222656 -20.20559692 240.82080078 C-22.5488311 240.71002422 -24.89214869 240.60099097 -27.23556519 240.49414062 C-32.85740362 240.23113801 -38.46421183 239.89983769 -44.07592773 239.4699707 C-50.37026761 239.00801279 -56.62388834 238.83910215 -62.93359375 238.83203125 C-64.01343033 238.82870285 -65.09326691 238.82537445 -66.20582581 238.82194519 C-68.4737201 238.81692707 -70.74162164 238.81453526 -73.00952148 238.81469727 C-76.39905631 238.81252464 -79.7882574 238.79435101 -83.17773438 238.77539062 C-95.91871329 238.74374826 -108.44537232 239.27297229 -121.12133789 240.5690918 C-125.43899931 240.99635514 -129.66308022 241.07987484 -134 241 C-132.44136713 236.18657495 -129.69369593 232.74145999 -126.625 228.8125 C-109.88637991 206.90329815 -95.93190803 183.05983676 -82.63378906 158.95458984 C-81.07582939 156.13713199 -79.50562761 153.32696333 -77.9296875 150.51953125 C-77.46328857 149.68703857 -76.99688965 148.8545459 -76.51635742 147.99682617 C-75.65591767 146.46106057 -74.79418448 144.92601864 -73.9309082 143.3918457 C-72.38395797 140.61822135 -71.00690165 138.02070494 -70 135 C-69.34 135 -68.68 135 -68 135 C-67.77441406 134.20335937 -67.54882812 133.40671875 -67.31640625 132.5859375 C-65.31617185 127.13722777 -62.39890295 122.20756341 -59.54492188 117.1640625 C-56.68627998 111.92531788 -55.52286675 107.92582312 -55 102 C-53 99 -53 99 -50 98 C-48.72926821 95.8654135 -47.64662741 93.80227124 -46.59375 91.5625 C-46.27257202 90.89921188 -45.95139404 90.23592377 -45.6204834 89.55253601 C-44.56947894 87.37337655 -43.53421339 85.18717266 -42.5 83 C-41.77769367 81.48917185 -41.05503489 79.97851215 -40.33203125 78.46801758 C-31.53066849 60.01038497 -23.34986336 41.32045465 -15.89453125 22.27758789 C-11.1802639 10.27447651 -11.1802639 10.27447651 -8.875 4.9375 C-8.40707031 3.83728516 -8.40707031 3.83728516 -7.9296875 2.71484375 C-6.11908994 -0.62487192 -3.45256461 -0.1770546 0 0 Z " fill="#0B0B0B" transform="translate(291,170)"/>
<path d="M0 0 C5.48204707 4.73955762 8.0363869 10.12968793 9.16015625 17.19921875 C10.54978165 38.87737499 -4.63798501 63.37976805 -15.26953125 81.37109375 C-15.61870605 81.96510986 -15.96788086 82.55912598 -16.32763672 83.17114258 C-18.25565801 86.29937352 -20.02543354 88.70688719 -23.26953125 90.49609375 C-25.62890625 90.7890625 -25.62890625 90.7890625 -28.01953125 90.68359375 C-28.81875 90.65652344 -29.61796875 90.62945312 -30.44140625 90.6015625 C-31.0446875 90.56675781 -31.64796875 90.53195313 -32.26953125 90.49609375 C-33.52419521 86.98436234 -33.37145786 85.71173797 -31.75 82.28125 C-30.99611468 81.03399579 -30.23092153 79.79353503 -29.45703125 78.55859375 C-23.54345609 68.57958217 -18.82655243 58.15136943 -14.26953125 47.49609375 C-13.89957031 46.64515137 -13.52960938 45.79420898 -13.1484375 44.91748047 C-8.53481251 34.15446796 -5.40391617 24.32517487 -7.26953125 12.49609375 C-9.75951753 6.45306116 -12.8278784 3.98093627 -18.8046875 1.40234375 C-23.53921253 0.16400124 -28.0214093 0.1990543 -32.89453125 0.24609375 C-34.36623779 0.25406982 -34.36623779 0.25406982 -35.86767578 0.26220703 C-44.22391272 0.37152028 -51.97046857 1.33899613 -60.04296875 3.51171875 C-64.34910173 4.59606941 -68.60375845 5.00276256 -73.01953125 5.37109375 C-104.97136762 8.47312243 -135.01021652 19.97678538 -163.94091797 33.41992188 C-166.11750005 34.42583232 -168.30263092 35.40945028 -170.4921875 36.38671875 C-181.96409346 41.56608146 -192.82373536 47.74529899 -203.71972656 54.03173828 C-205.82945388 55.24335686 -207.94620225 56.43815133 -210.07421875 57.6171875 C-227.57378985 67.37414261 -244.24747681 78.481529 -260.26953125 90.49609375 C-261.18750488 91.18445313 -261.18750488 91.18445313 -262.12402344 91.88671875 C-278.15089881 103.96237 -293.44935929 116.97354053 -308.26953125 130.49609375 C-309.26953125 127.49609375 -309.26953125 127.49609375 -308.29296875 125.1953125 C-305.59865082 121.6011548 -302.41428314 119.06898947 -298.89453125 116.30859375 C-298.17700684 115.73689453 -297.45948242 115.16519531 -296.72021484 114.57617188 C-294.57696208 112.87374346 -292.4246387 111.18347745 -290.26953125 109.49609375 C-289.69847656 109.04540527 -289.12742187 108.5947168 -288.5390625 108.13037109 C-284.82157789 105.19883616 -281.06115715 102.33049648 -277.26953125 99.49609375 C-276.66608887 99.04395508 -276.06264648 98.59181641 -275.44091797 98.12597656 C-254.29714656 82.37137336 -232.15769303 67.59078731 -209.26953125 54.49609375 C-208.17487549 53.86815918 -208.17487549 53.86815918 -207.05810547 53.22753906 C-201.83338996 50.24563392 -196.56496008 47.35028377 -191.26953125 44.49609375 C-190.42116699 44.0376709 -189.57280273 43.57924805 -188.69873047 43.10693359 C-45.24276371 -34.03817683 -45.24276371 -34.03817683 0 0 Z " fill="#090909" transform="translate(382.26953125,41.50390625)"/>
<path d="M0 0 C3 1.125 3 1.125 6 3 C6.73476563 3.42539062 7.46953125 3.85078125 8.2265625 4.2890625 C13.56260883 7.53935782 16.64264906 10.15786942 19 16 C19.66244316 19.64343736 19.66539622 21.82395086 17.82421875 25.078125 C15.06106957 28.933682 12.12438018 32.58572868 8 35 C1.94406464 35.73088875 1.94406464 35.73088875 -0.9375 33.5 C-1.288125 33.005 -1.63875 32.51 -2 32 C-4.9719385 33.12451727 -7.33440687 34.22293791 -10 36 C-12.375 36.4375 -12.375 36.4375 -15 36 C-17.6875 33.625 -17.6875 33.625 -20 31 C-20.66 30.34 -21.32 29.68 -22 29 C-22.265625 26.9765625 -22.265625 26.9765625 -22.25 24.625 C-22.25515625 23.85414063 -22.2603125 23.08328125 -22.265625 22.2890625 C-21.97576765 19.79117415 -21.11402903 18.22805807 -20 16 C-20.144375 14.9275 -20.28875 13.855 -20.4375 12.75 C-19.82336947 7.48602401 -17.12996502 5.86241568 -13.1640625 2.6015625 C-8.87960146 -0.56924802 -5.20106323 -0.47764866 0 0 Z " fill="#F5F5F5" transform="translate(283,362)"/>
<path d="M0 0 C1.0828125 1.051875 1.0828125 1.051875 2.1875 2.125 C2.1875 2.785 2.1875 3.445 2.1875 4.125 C0.88039063 4.14626953 0.88039063 4.14626953 -0.453125 4.16796875 C-10.99675137 4.59017024 -20.17864906 6.40672642 -28.1875 13.6875 C-32.59117375 18.52057763 -35.16294452 24.20527244 -37.8125 30.125 C-40.49207581 36.08391226 -42.70094218 40.06922109 -48.8125 43.125 C-55.89203977 43.70529015 -55.89203977 43.70529015 -59.6875 41.3125 C-61.8125 39.125 -61.8125 39.125 -63.8125 36.125 C-66.11730602 35.83610042 -66.11730602 35.83610042 -68.6875 36.0625 C-72.40425065 36.27884817 -74.5908082 36.05052278 -77.8125 34.125 C-77.8125 33.465 -77.8125 32.805 -77.8125 32.125 C-77.18601563 31.93164062 -76.55953125 31.73828125 -75.9140625 31.5390625 C-74.68816406 31.14847656 -74.68816406 31.14847656 -73.4375 30.75 C-72.62539062 30.49476563 -71.81328125 30.23953125 -70.9765625 29.9765625 C-68.64790815 29.22645717 -68.64790815 29.22645717 -66.8125 27.125 C-66.1699765 25.05625966 -66.1699765 25.05625966 -65.8125 23.125 C-66.369375 23.455 -66.92625 23.785 -67.5 24.125 C-70.11534522 25.2559601 -71.9931646 25.28162974 -74.8125 25.125 C-74.8125 24.465 -74.8125 23.805 -74.8125 23.125 C-75.616875 23.00125 -76.42125 22.8775 -77.25 22.75 C-78.5184375 22.440625 -78.5184375 22.440625 -79.8125 22.125 C-80.1425 21.465 -80.4725 20.805 -80.8125 20.125 C-80.11125 20.01285156 -79.41 19.90070313 -78.6875 19.78515625 C-71.44563418 18.27971403 -68.15650438 15.9797232 -63.59765625 10.22265625 C-61.34270001 7.57295931 -59.07252315 6.28929398 -55.8125 5.125 C-55.1525 5.125 -54.4925 5.125 -53.8125 5.125 C-53.8846875 6.00800781 -53.956875 6.89101562 -54.03125 7.80078125 C-55.83044178 20.20648574 -55.83044178 20.20648574 -53.8125 32.125 C-51.86308629 32.05014236 -51.86308629 32.05014236 -49.8125 31.125 C-48.47240569 28.65949527 -48.47240569 28.65949527 -47.5 25.625 C-43.04654321 14.17907293 -34.86105926 5.22219711 -23.76953125 -0.1484375 C-16.94626826 -2.68162496 -6.35958497 -4.09265157 0 0 Z " fill="#F7F7F7" transform="translate(313.8125,140.875)"/>
<path d="M0 0 C2.5 1 2.5 1 3.85546875 3.4296875 C5.80243378 6.47268748 6.93426099 7.00060861 10.3125 8.125 C11.28445313 8.44855469 12.25640625 8.77210938 13.2578125 9.10546875 C16.71370522 10.05896204 20.16763205 10.76002004 23.6875 11.4375 C30.94330543 12.9077344 35.60912114 15.25737134 40.9375 20.3125 C43.04869585 23.94375687 43.21689548 26.82420832 43.5 31 C41.3909187 30.00915644 39.48786489 28.99131434 37.58984375 27.6328125 C31.26518143 23.20210532 25.01149168 21.72527063 17.54077148 20.38134766 C11.99235539 19.38257529 6.80198842 17.91915375 1.5 16 C0.695625 16.804375 -0.10875 17.60875 -0.9375 18.4375 C-2.125 19.625 -3.3125 20.8125 -4.5 22 C-4.91319366 26.04801273 -4.91319366 26.04801273 -4.5 30 C-1.27503623 33.55970685 2.60560816 33.53989797 7.125 33.875 C15.38328457 34.70176477 21.78449873 36.72682031 28.125 42.3125 C30.05420361 46.08321614 29.78497481 48.79662159 29.5 53 C26.20162546 52.40946133 24.58058686 51.35836181 22.125 49.125 C15.84598643 44.23742519 8.05963818 43.70634193 0.3984375 42.51953125 C-5.92495403 41.50047228 -11.65163484 40.46757498 -15.9375 35.25 C-17.39075474 29.43698104 -16.69640634 24.49101585 -14.5 19 C-13.84 19 -13.18 19 -12.5 19 C-12.066875 17.7934375 -12.066875 17.7934375 -11.625 16.5625 C-10.5 14 -10.5 14 -8.5 13 C-6.50039988 12.960008 -4.49952758 12.95653201 -2.5 13 C-2.995 12.278125 -3.49 11.55625 -4 10.8125 C-5.60589707 7.801443 -6.02802213 6.34414015 -5.5 3 C-3.84307552 0.38380345 -3.11459366 0 0 0 Z " fill="#F6F6F6" transform="translate(314.5,153)"/>
<path d="M0 0 C0 0.66 0 1.32 0 2 C5.43605188 3.49850068 5.43605188 3.49850068 11 4 C16.30654179 11.95981268 16.05565967 23.71531047 15 33 C14.00460854 36.43193666 12.80785477 38.89274961 11 42 C8.69 41.67 6.38 41.34 4 41 C3.85917696 37.47942408 3.76173177 34.64034586 5 31.3125 C6.83490898 25.23436402 6.82785964 18.11236264 5 12 C4.34 12.33 3.68 12.66 3 13 C3.12375 14.216875 3.2475 15.43375 3.375 16.6875 C3.38175068 20.50838564 3.15746428 20.8352118 0.3125 23.8125 C-7.54285714 29 -7.54285714 29 -10 29 C-10.66 31.64 -11.32 34.28 -12 37 C-16.875 36.125 -16.875 36.125 -18 35 C-18.30172745 31.60556614 -18.35204436 29.60807662 -16.625 26.625 C-16.08875 26.08875 -15.5525 25.5525 -15 25 C-14.34 25 -13.68 25 -13 25 C-12.67 24.01 -12.34 23.02 -12 22 C-10.15234375 20.83203125 -10.15234375 20.83203125 -7.9375 19.8125 C-7.20402344 19.46832031 -6.47054688 19.12414062 -5.71484375 18.76953125 C-5.14894531 18.51558594 -4.58304687 18.26164062 -4 18 C-5.134375 18.185625 -6.26875 18.37125 -7.4375 18.5625 C-9.2009375 18.7790625 -9.2009375 18.7790625 -11 19 C-12 18 -12 18 -12.0625 15.4375 C-12.041875 14.633125 -12.02125 13.82875 -12 13 C-11.030625 12.71125 -10.06125 12.4225 -9.0625 12.125 C-5.89335797 11.35785318 -5.89335797 11.35785318 -5 9 C-11.02850965 9.8975781 -15.96685357 11.10597728 -20 16 C-21.38708447 18.23474721 -22.62884222 20.50737656 -23.84375 22.83984375 C-25.28550636 25.53339533 -26.87439965 27.8035463 -29 30 C-29.99 30 -30.98 30 -32 30 C-32.2236337 28.58566794 -32.42826476 27.16832382 -32.625 25.75 C-32.74101562 24.96109375 -32.85703125 24.1721875 -32.9765625 23.359375 C-33.00319395 20.67847541 -32.36592084 19.27305911 -31 17 C-30.34 17 -29.68 17 -29 17 C-28.9175 16.278125 -28.835 15.55625 -28.75 14.8125 C-27.34816036 9.55560135 -24.30396273 6.98991602 -19.75 4.3125 C-13.29042751 0.94505074 -7.2683743 -0.30284893 0 0 Z " fill="#F7F7F7" transform="translate(393,376)"/>
<path d="M0 0 C3.1875 1.375 3.1875 1.375 5 3 C5 3.66 5 4.32 5 5 C4.0821875 5.07476562 3.164375 5.14953125 2.21875 5.2265625 C-7.14157623 6.2294546 -12.5506249 7.90217337 -18.7421875 14.99609375 C-21.97694453 19.08984129 -24.43724718 22.89035556 -25.37890625 28.09375 C-26.43700267 33.81319013 -27.85968029 36.85968029 -32 41 C-35.2067118 42.6033559 -38.52124682 42.49604443 -42 42 C-44.31049784 40.88843696 -45.97849628 39.61720298 -48 38 C-48.495 38.495 -48.495 38.495 -49 39 C-50.52519276 38.91062197 -52.04681929 38.75462854 -53.5625 38.5625 C-54.38878906 38.46066406 -55.21507812 38.35882813 -56.06640625 38.25390625 C-56.70449219 38.17011719 -57.34257812 38.08632813 -58 38 C-58 37.01 -58 36.02 -58 35 C-56.865625 34.5875 -55.73125 34.175 -54.5625 33.75 C-50.90456616 32.43314602 -50.90456616 32.43314602 -50.0625 29.8125 C-50.041875 29.214375 -50.02125 28.61625 -50 28 C-50.804375 28.5259375 -50.804375 28.5259375 -51.625 29.0625 C-54.7634242 30.30135166 -56.76212444 29.77427459 -60 29 C-60.66 28.67 -61.32 28.34 -62 28 C-62 27.34 -62 26.68 -62 26 C-60.80375 25.505 -59.6075 25.01 -58.375 24.5 C-54.09728618 22.40633021 -52.06030344 19.82596529 -49.6171875 15.8046875 C-48 14 -48 14 -42 12 C-41.67 18.6 -41.34 25.2 -41 32 C-35.53433586 28.72060152 -35.1522318 27.89530446 -33.0625 22.25 C-27.36104109 7.95895116 -15.79149416 -1.31975023 0 0 Z " fill="#F4F4F4" transform="translate(266,359)"/>
<path d="M0 0 C0 0.66 0 1.32 0 2 C0.99 2.33 1.98 2.66 3 3 C3 3.66 3 4.32 3 5 C1.78183594 4.96519531 0.56367188 4.93039062 -0.69140625 4.89453125 C-2.31509028 4.86637488 -3.93878935 4.83907671 -5.5625 4.8125 C-6.36236328 4.78736328 -7.16222656 4.76222656 -7.98632812 4.73632812 C-16.43202204 4.63291146 -21.84478584 7.28183188 -28.0859375 12.96875 C-30.67567142 15.71703905 -32.62190572 18.7218985 -34.62109375 21.9140625 C-36.83516032 25.26338701 -39.36268413 28.18134207 -43 30 C-46.25 30.5 -46.25 30.5 -50 30 C-51.63992049 28.34272586 -52.93252865 26.54741406 -54.3203125 24.67578125 C-56.88032064 22.12172662 -59.54489709 21.93342019 -63.046875 21.58203125 C-64.01367188 21.29392578 -64.01367188 21.29392578 -65 21 C-65.66 19.68 -66.32 18.36 -67 17 C-61.555 16.01 -61.555 16.01 -56 15 C-56 13.68 -56 12.36 -56 11 C-56.99 11.495 -56.99 11.495 -58 12 C-60.875 12.375 -60.875 12.375 -64 12 C-66.375 9.5 -66.375 9.5 -68 7 C-67.18015625 6.82984375 -66.3603125 6.6596875 -65.515625 6.484375 C-64.43796875 6.24203125 -63.3603125 5.9996875 -62.25 5.75 C-61.18265625 5.51796875 -60.1153125 5.2859375 -59.015625 5.046875 C-55.68284994 3.88990127 -54.39358747 2.51326684 -52 0 C-49.3482141 -1.02587338 -46.807232 -1.4385536 -44 -2 C-44.433125 -0.205625 -44.433125 -0.205625 -44.875 1.625 C-46.30782464 8.02153856 -47.13183438 14.50722946 -48 21 C-44.82096273 20.06245341 -43.30318375 19.43084006 -41.3671875 16.6796875 C-40.87476563 15.75414062 -40.38234375 14.82859375 -39.875 13.875 C-35.02913006 5.8056192 -28.06696138 0.55611145 -19 -2 C-12.4110921 -3.2821056 -5.78455162 -3.85636775 0 0 Z " fill="#F6F6F6" transform="translate(376,371)"/>
<path d="M0 0 C5.48637343 3.19288946 9.96361267 8.32735201 12.21875 14.30078125 C14.07228144 22.74979541 13.02312764 31.5115591 9.6875 39.4375 C9.0275 40.4275 8.3675 41.4175 7.6875 42.4375 C6.6975 42.4375 5.7075 42.4375 4.6875 42.4375 C4.72230469 41.19355469 4.75710938 39.94960938 4.79296875 38.66796875 C4.97010153 29.48381858 4.983158 21.1670703 1.6875 12.4375 C0.6975 12.4375 -0.2925 12.4375 -1.3125 12.4375 C-4.08596296 11.58848073 -6.71678178 10.73535911 -9.3125 9.4375 C-9.3125 8.7775 -9.3125 8.1175 -9.3125 7.4375 C-19.24144078 8.946699 -29.01928586 10.44654399 -36.03125 18.3828125 C-37.59047682 20.46213194 -37.59047682 20.46213194 -39.3125 23.4375 C-39.6425 22.7775 -39.9725 22.1175 -40.3125 21.4375 C-38.32068853 16.2988083 -35.56683307 9.96251883 -31.3125 6.4375 C-28.44146707 6.3379266 -26.15907935 6.82074114 -23.3125 7.4375 C-23.9725 5.7875 -24.6325 4.1375 -25.3125 2.4375 C-17.03936516 -1.15272833 -8.7881329 -3.96992876 0 0 Z " fill="#0B0B0B" transform="translate(402.3125,368.5625)"/>
<path d="M0 0 C1.32 0 2.64 0 4 0 C4.433125 0.928125 4.86625 1.85625 5.3125 2.8125 C7.45208434 6.8539371 8.58521258 8.48758698 12.93359375 10.0625 C14.08988281 10.371875 15.24617188 10.68125 16.4375 11 C17.68660156 11.34160156 18.93570312 11.68320313 20.22265625 12.03515625 C23.59642634 12.89691552 26.97861804 13.67169158 30.375 14.4375 C38.63061126 16.48216537 43.99900043 20.18045513 49 27 C50.35439668 29.70879335 50.06501451 32.00933268 50 35 C46.41216472 34.38843717 44.34777183 32.90401574 41.5 30.6875 C32.93017529 24.57510683 23.02400631 22.59625821 12.87475586 20.48168945 C7.14369008 19.23557269 3.30606736 17.95910104 0 13 C0 11.68 0 10.36 0 9 C-1.32 9 -2.64 9 -4 9 C-4 7.35 -4 5.7 -4 4 C-2.68 3.67 -1.36 3.34 0 3 C0 2.01 0 1.02 0 0 Z " fill="#0B0B0B" transform="translate(317,143)"/>
<path d="M0 0 C2.48484748 2.12986927 3.32765139 3.36430871 4.625 6.25 C3.69300781 6.26417969 2.76101563 6.27835938 1.80078125 6.29296875 C-7.48446235 6.64034389 -14.87042022 8.23575178 -23.375 12.25 C-24.86386719 12.95189453 -24.86386719 12.95189453 -26.3828125 13.66796875 C-38.48902759 19.82003718 -44.90065958 28.55883443 -49.48046875 41.1484375 C-50.375 43.25 -50.375 43.25 -52.375 45.25 C-54.5 44.875 -54.5 44.875 -56.375 44.25 C-56.705 42.27 -57.035 40.29 -57.375 38.25 C-56.61703125 38.0746875 -55.8590625 37.899375 -55.078125 37.71875 C-51.26013892 35.64423733 -50.53891008 32.63526371 -49.125 28.75 C-44.27674187 16.64625933 -35.73812392 7.56591773 -23.875 2 C-16.22727258 -1.14829259 -7.76927856 -4.02851481 0 0 Z " fill="#0C0C0C" transform="translate(315.375,128.75)"/>
<path d="M0 0 C0 0.99 0 1.98 0 3 C-2.16015625 4.54296875 -2.16015625 4.54296875 -5.0625 6.1875 C-13.55405232 11.39550712 -18.2111844 17.9544831 -23.32421875 26.38671875 C-25.84048736 30.31069008 -28.10037027 33.40024685 -32 36 C-34.04296875 36.1953125 -34.04296875 36.1953125 -36.1875 36.125 C-37.445625 36.08375 -38.70375 36.0425 -40 36 C-40 37.32 -40 38.64 -40 40 C-43.60008519 40.32728047 -45.41611492 40.40422813 -48.4375 38.3125 C-50 36 -50 36 -49.75 33.25 C-49.5025 32.5075 -49.255 31.765 -49 31 C-48.443125 31.03222656 -47.88625 31.06445312 -47.3125 31.09765625 C-43.48457929 31.03946151 -40.90602195 30.73012758 -37.8671875 28.28125 C-34.39064959 24.40934111 -31.46481304 20.24760167 -28.5625 15.9375 C-21.21826325 5.17265983 -13.11998666 -0.70007834 0 0 Z " fill="#0C0C0C" transform="translate(221,158)"/>
<path d="M0 0 C-0.33 0.33 -0.66 0.66 -1 1 C-0.01 1.99 -0.01 1.99 1 3 C0.44352783 3.17015625 -0.11294434 3.3403125 -0.6862793 3.515625 C-20.92524449 9.7398155 -40.46550543 16.99949271 -59.67138672 25.92382812 C-61.8479688 26.92973857 -64.03309967 27.91335653 -66.22265625 28.890625 C-77.69456221 34.06998771 -88.55420411 40.24920524 -99.45019531 46.53564453 C-101.55992263 47.74726311 -103.676671 48.94205758 -105.8046875 50.12109375 C-123.3042586 59.87804886 -139.97794556 70.98543525 -156 83 C-156.91797363 83.68835938 -156.91797363 83.68835938 -157.85449219 84.390625 C-173.88136756 96.46627625 -189.17982804 109.47744678 -204 123 C-205 120 -205 120 -204.0234375 117.69921875 C-201.32911957 114.10506105 -198.14475189 111.57289572 -194.625 108.8125 C-193.90747559 108.24080078 -193.18995117 107.66910156 -192.45068359 107.08007812 C-190.30743083 105.37764971 -188.15510745 103.6873837 -186 102 C-185.42894531 101.54931152 -184.85789062 101.09862305 -184.26953125 100.63427734 C-180.55204664 97.70274241 -176.7916259 94.83440273 -173 92 C-172.39655762 91.54786133 -171.79311523 91.09572266 -171.17138672 90.62988281 C-150.02761531 74.87527961 -127.88816178 60.09469356 -105 47 C-103.90534424 46.37206543 -103.90534424 46.37206543 -102.78857422 45.73144531 C-97.56385871 42.74954017 -92.29542883 39.85419002 -87 37 C-86.15163574 36.54157715 -85.30327148 36.0831543 -84.42919922 35.61083984 C-59.71932188 22.32281664 -34.33644811 10.66830296 -8 1 C-6.93313965 0.60514404 -5.8662793 0.21028809 -4.76708984 -0.1965332 C-2 -1 -2 -1 0 0 Z " fill="#505050" transform="translate(278,49)"/>
<path d="M0 0 C1.6904794 0.95771111 3.32089433 2.01991914 4.9375 3.09765625 C4.9375 3.75765625 4.9375 4.41765625 4.9375 5.09765625 C4.0196875 5.18402344 3.101875 5.27039063 2.15625 5.359375 C-9.10255402 6.64846075 -15.38095816 9.30488729 -22.59375 18.05859375 C-25.94216249 22.70718768 -27.25639215 27.70061007 -28.53125 33.171875 C-29.6033335 37.05817768 -31.22105714 40.25621339 -34.0625 43.09765625 C-35.0525 43.09765625 -36.0425 43.09765625 -37.0625 43.09765625 C-37.51587104 30.35289253 -36.80571224 20.07728235 -28.0625 10.09765625 C-20.63058394 3.67459757 -10.31034515 -4.510776 0 0 Z " fill="#0C0C0C" transform="translate(262.0625,347.90234375)"/>
<path d="M0 0 C1.46373047 0.02707031 1.46373047 0.02707031 2.95703125 0.0546875 C3.69308594 0.07789063 4.42914063 0.10109375 5.1875 0.125 C3.93659424 3.87771729 2.90758418 4.06169661 -0.5 5.875 C-7.52919558 9.958723 -11.0079875 14.7593289 -15.1875 21.625 C-19.07389366 27.88976317 -23.89097776 33.22856731 -30.8125 36.125 C-34.4375 36.375 -34.4375 36.375 -37.8125 36.125 C-39.8125 34.125 -39.8125 34.125 -39.9375 31 C-39.89625 30.05125 -39.855 29.1025 -39.8125 28.125 C-38.2346875 28.0321875 -38.2346875 28.0321875 -36.625 27.9375 C-29.37150537 26.39167327 -26.46618783 20.27162183 -22.5078125 14.48828125 C-20.52113543 11.71883511 -18.31712453 9.43189101 -15.8125 7.125 C-14.9875 6.238125 -14.1625 5.35125 -13.3125 4.4375 C-9.16312388 0.59932709 -5.56649339 -0.13413237 0 0 Z " fill="#F6F6F6" transform="translate(221.8125,165.875)"/>
<path d="M0 0 C-4.92784893 1.67194874 -9.8632031 3.2588064 -14.85058594 4.74536133 C-27.10179232 8.4113373 -27.10179232 8.4113373 -37.6875 15.375 C-39.45884969 18.91769938 -38.88976377 21.21850398 -38 25 C-31.97531975 27.92105709 -26.93809327 27.4924317 -20.6875 25.5 C-10.99781193 21.71930315 -3.75159101 13.98336948 3.75 7.00390625 C7.29134312 3.84989753 9.33213508 3.89852468 14 4 C12.02538709 6.35990324 10.03230931 8.69035094 8 11 C7.51660156 11.55171875 7.03320312 12.1034375 6.53515625 12.671875 C-2.5629443 22.3950359 -15.51798523 31.89636827 -29.11328125 33.203125 C-34.54218901 33.31883884 -38.21985464 32.63395765 -43 30 C-45.56205842 26.15691236 -45.67366765 24.5659696 -45 20 C-39.91378117 10.10463262 -27.10997171 5.58159675 -17.09765625 2.3515625 C-4.55238568 -1.40514284 -4.55238568 -1.40514284 0 0 Z " fill="#141414" transform="translate(143,413)"/>
<path d="M0 0 C1.76641396 1.4840773 3.19084285 2.80721557 4.46875 4.7265625 C4.46875 5.3865625 4.46875 6.0465625 4.46875 6.7265625 C3.19 6.69175781 1.91125 6.65695312 0.59375 6.62109375 C-1.11457009 6.59293463 -2.82290452 6.56563676 -4.53125 6.5390625 C-5.37042969 6.51392578 -6.20960938 6.48878906 -7.07421875 6.46289062 C-18.58791445 6.32901044 -27.51005081 11.68555853 -36.21875 18.9765625 C-39.2852911 22.62326002 -41.92315302 26.53383098 -44.56640625 30.49609375 C-45.21480469 31.23214844 -45.86320312 31.96820313 -46.53125 32.7265625 C-47.85125 32.7265625 -49.17125 32.7265625 -50.53125 32.7265625 C-50.53125 29.7565625 -50.53125 26.7865625 -50.53125 23.7265625 C-49.76425781 23.65566406 -48.99726563 23.58476562 -48.20703125 23.51171875 C-45.40988005 22.97888293 -45.40988005 22.97888293 -44.01171875 20.72265625 C-43.58503906 19.87832031 -43.15835937 19.03398437 -42.71875 18.1640625 C-38.14696224 9.99096878 -32.34108765 4.10980814 -23.53125 0.7265625 C-22.61472656 0.37335938 -21.69820313 0.02015625 -20.75390625 -0.34375 C-14.34663196 -2.19215155 -6.10301277 -3.07034284 0 0 Z " fill="#101010" transform="translate(378.53125,359.2734375)"/>
<path d="M0 0 C0.66 0 1.32 0 2 0 C2.2475 0.78375 2.495 1.5675 2.75 2.375 C4.21349785 5.44834549 4.92902167 5.76955106 8 7 C10.06582237 7.44082207 10.06582237 7.44082207 12.23046875 7.640625 C29.49278692 9.75185629 29.49278692 9.75185629 36 16 C36.54011719 16.48726562 37.08023438 16.97453125 37.63671875 17.4765625 C40.37748476 20.28490905 40.9952705 21.94135421 41.3125 25.875 C41.209375 26.90625 41.10625 27.9375 41 29 C38.69921875 29.23046875 38.69921875 29.23046875 36 29 C34.33203125 27.42578125 34.33203125 27.42578125 32.8125 25.3125 C26.72806837 17.96697891 19.89924289 15.83237299 10.6875 14.9375 C10.0056665 14.89447754 9.32383301 14.85145508 8.62133789 14.80712891 C3.91337623 14.4399438 1.23979769 13.48092767 -2 10 C-2.78390911 7.09460258 -2.34623323 5.06663719 -2 2 C-1.34 1.34 -0.68 0.68 0 0 Z " fill="#121212" transform="translate(311,173)"/>
<path d="M0 0 C3.64420124 2.85078021 7.04938989 5.72629467 8.54296875 10.20703125 C8.57043183 12.20684269 8.57289737 14.20725519 8.54296875 16.20703125 C7.81851563 15.73652344 7.0940625 15.26601563 6.34765625 14.78125 C-4.65836285 7.40263346 -4.65836285 7.40263346 -17.45703125 6.20703125 C-18.44703125 6.53703125 -19.43703125 6.86703125 -20.45703125 7.20703125 C-20.45703125 6.54703125 -20.45703125 5.88703125 -20.45703125 5.20703125 C-21.19953125 4.91828125 -21.94203125 4.62953125 -22.70703125 4.33203125 C-25.02442922 3.38400481 -27.2362024 2.35857214 -29.45703125 1.20703125 C-23.43773716 -5.71515695 -7.22138865 -4.51137525 0 0 Z " fill="#0D0D0D" transform="translate(291.45703125,356.79296875)"/>
<path d="M0 0 C1.03285465 14.68948831 1.03285465 14.68948831 -2.75 19.8125 C-4.9028633 22.27524514 -6.96160922 23.77387774 -10 25 C-10.99 25 -11.98 25 -13 25 C-13 25.66 -13 26.32 -13 27 C-12.01 27.33 -11.02 27.66 -10 28 C-10 28.33 -10 28.66 -10 29 C-12.31 29 -14.62 29 -17 29 C-17 27.68 -17 26.36 -17 25 C-11.25 22 -11.25 22 -9 22 C-9 20.35 -9 18.7 -9 17 C-9.515625 17.515625 -10.03125 18.03125 -10.5625 18.5625 C-14.04426568 20.61584899 -16.1631596 19.97665028 -20 19 C-21.71484375 17.4453125 -21.71484375 17.4453125 -23 16 C-22.34773437 15.731875 -21.69546875 15.46375 -21.0234375 15.1875 C-15.26345359 12.60485235 -11.74984621 10.22521764 -8.3515625 4.8671875 C-5.96862882 1.57515773 -4.11167376 0 0 0 Z " fill="#101010" transform="translate(217,360)"/>
<path d="M0 0 C0.66 0 1.32 0 2 0 C2.47555352 3.77140358 2.6994248 7.24853971 2 11 C0.15029197 12.92017309 -1.58220949 13.85611128 -3.97265625 15.015625 C-6.19821547 15.95960527 -6.19821547 15.95960527 -8.1875 18.1875 C-11.11620661 21.11620661 -13.88832534 21.85808409 -17.9375 22.375 C-21.84501109 21.89652925 -23.96715342 20.45516152 -27 18 C-27 17.34 -27 16.68 -27 16 C-25.80375 15.71125 -24.6075 15.4225 -23.375 15.125 C-18.10079713 13.8312644 -18.10079713 13.8312644 -13 12 C-11.87483915 10.16715557 -11.87483915 10.16715557 -11 8 C-7.90734492 4.48941856 -5.43668793 2.47889598 -1 1 C-0.67 0.67 -0.34 0.34 0 0 Z " fill="#0E0E0E" transform="translate(256,136)"/>
<path d="M0 0 C-0.31594357 3.79777069 -0.77412831 7.38126961 -2 11 C-5.375 13.0625 -5.375 13.0625 -9 14 C-10.34013497 14.65288627 -11.67741528 15.31225595 -13 16 C-13 15.34 -13 14.68 -13 14 C-14.2375 14.2475 -15.475 14.495 -16.75 14.75 C-20.64878606 15.25463011 -20.64878606 15.25463011 -23.5 13.1875 C-25 11 -25 11 -25 9 C-24.20335937 8.84144531 -23.40671875 8.68289063 -22.5859375 8.51953125 C-15.93833434 7.05576462 -11.91423038 5.66851887 -7 1 C-4.40353907 0.03560023 -2.80855798 0 0 0 Z " fill="#101010" transform="translate(332,359)"/>
<path d="M0 0 C0.33 0 0.66 0 1 0 C2.11657642 26.37983364 -2.51400181 49.02348052 -11 74 C-11.99 74 -12.98 74 -14 74 C-13.31115236 70.37030282 -12.46387675 66.81634398 -11.5 63.25 C-11.2421875 62.28578125 -10.984375 61.3215625 -10.71875 60.328125 C-10 58 -10 58 -9 57 C-8.64915908 55.48755135 -8.34454538 53.9642746 -8.0625 52.4375 C-7.49654143 49.38893326 -6.84819553 46.41998043 -6.0625 43.41796875 C-4.68076673 37.96362326 -3.81959712 32.4282784 -2.9375 26.875 C-2.7612207 25.77293213 -2.58494141 24.67086426 -2.40332031 23.53540039 C-1.1833401 15.69374117 -0.28398979 7.93751461 0 0 Z " fill="#E0E0E0" transform="translate(498,263)"/>
<path d="M0 0 C0.66 0.66 1.32 1.32 2 2 C0.02 2.66 -1.96 3.32 -4 4 C-4 4.66 -4 5.32 -4 6 C-4.59425781 6.06316406 -5.18851562 6.12632812 -5.80078125 6.19140625 C-15.04273108 7.55685762 -22.86119669 11.73149296 -28.5625 19.25 C-29.39574483 20.4862683 -30.21083597 21.7351378 -31 23 C-31.66 23.99 -32.32 24.98 -33 26 C-32.64279626 17.60571219 -28.13590369 11.74466144 -22.125 6.125 C-15.51293165 0.72764875 -8.53606375 -1.22170429 0 0 Z " fill="#B0B0B0" transform="translate(267,353)"/>
<path d="M0 0 C-0.33 0.33 -0.66 0.66 -1 1 C-0.34 1.66 0.32 2.32 1 3 C0.16529175 3.25523438 0.16529175 3.25523438 -0.6862793 3.515625 C-19.03368033 9.15809329 -37.05883086 15.37622767 -54.40527344 23.65014648 C-59.68133335 26.10622222 -59.68133335 26.10622222 -63 25 C-45.59765545 15.81242679 -27.3999507 7.82593154 -8.875 1.1875 C-7.84644897 0.8150415 -7.84644897 0.8150415 -6.79711914 0.43505859 C-2.25403364 -1.12701682 -2.25403364 -1.12701682 0 0 Z " fill="#202020" transform="translate(278,49)"/>
<path d="M0 0 C-2.89674143 6.52469913 -8.81959959 10.40206751 -15.1328125 13.38671875 C-17.68798315 14.22596936 -19.50847471 13.93432199 -22 13 C-22 10.8125 -22 10.8125 -21 8 C-15.47766638 3.2764079 -7.33792849 -0.6879308 0 0 Z " fill="#B3B3B3" transform="translate(133,422)"/>
<path d="M0 0 C1.21816406 0.03480469 1.21816406 0.03480469 2.4609375 0.0703125 C3.68683594 0.09738281 3.68683594 0.09738281 4.9375 0.125 C5.87722656 0.15980469 5.87722656 0.15980469 6.8359375 0.1953125 C4.50260417 2.52864583 2.16927083 4.86197917 -0.1640625 7.1953125 C-0.1434375 8.2265625 -0.1228125 9.2578125 -0.1015625 10.3203125 C-0.17692883 14.99302472 -1.36182166 17.9149905 -3.1640625 22.1953125 C-3.8240625 22.1953125 -4.4840625 22.1953125 -5.1640625 22.1953125 C-7.96651717 18.74613752 -8.68703064 15.6954272 -8.52734375 11.2578125 C-7.74136871 6.79550258 -4.90926493 0.44307445 0 0 Z " fill="#101010" transform="translate(264.1640625,363.8046875)"/>
<path d="M0 0 C0 0.66 0 1.32 0 2 C-1.20160767 2.24907104 -1.20160767 2.24907104 -2.42749023 2.50317383 C-5.44207577 3.13073178 -8.45559484 3.7631369 -11.46850586 4.39868164 C-13.39685703 4.80395817 -15.32634868 5.20379602 -17.25585938 5.60351562 C-23.35176936 6.89272896 -29.29302872 8.23455424 -35.14648438 10.38867188 C-38.06365874 11.35081684 -40.95198366 11.67574294 -44 12 C-43 9 -43 9 -41.35205078 8.17211914 C-40.64032715 7.96192139 -39.92860352 7.75172363 -39.1953125 7.53515625 C-37.99165039 7.17369507 -37.99165039 7.17369507 -36.76367188 6.80493164 C-35.4575293 6.43742798 -35.4575293 6.43742798 -34.125 6.0625 C-33.23619141 5.80525146 -32.34738281 5.54800293 -31.43164062 5.28295898 C-25.16576699 3.51031813 -18.86271423 1.94621295 -12.5 0.5625 C-11.30914795 0.2986853 -11.30914795 0.2986853 -10.09423828 0.02954102 C-6.36813305 -0.73726541 -3.6364662 -1.10637769 0 0 Z " fill="#D7D7D7" transform="translate(213,2)"/>
<path d="M0 0 C7.90850941 7.90850941 8.33599558 28.20568041 8.41748047 38.76538086 C8.3574276 43.51473441 8.23995873 48.25620046 8 53 C7.67 53 7.34 53 7 53 C6.92483154 52.35675781 6.84966309 51.71351563 6.7722168 51.05078125 C4.33720314 29.49146062 4.33720314 29.49146062 -0.25 8.3125 C-0.98898496 5.04864976 -0.9887386 3.16396352 0 0 Z " fill="#DCDCDC" transform="translate(491,180)"/>
<path d="M0 0 C0.33 0 0.66 0 1 0 C1.07516846 0.74459473 1.15033691 1.48918945 1.2277832 2.25634766 C2.9509189 20.42240827 2.9509189 20.42240827 6.44921875 38.30078125 C7.05325729 41.26099849 7.09346714 43.98679735 7 47 C6.01 46.67 5.02 46.34 4 46 C0.35158508 30.51052417 -0.51412606 15.88847253 0 0 Z " fill="#D9D9D9" transform="translate(0,260)"/>
<path d="M0 0 C-0.57991413 3.36937448 -1.60349679 4.96552427 -4.0625 7.3125 C-4.69671875 7.9209375 -5.3309375 8.529375 -5.984375 9.15625 C-8.54669388 11.50007657 -11.17217054 13.76364618 -13.80859375 16.0234375 C-17.335692 19.20474181 -20.60519125 22.63789989 -23.8984375 26.05859375 C-26 28 -26 28 -28 28 C-28.33 28.66 -28.66 29.32 -29 30 C-29.66 29.34 -30.32 28.68 -31 28 C-27.99836152 24.97340226 -24.99326859 21.95028738 -21.98510742 18.93017578 C-20.96497546 17.90505501 -19.94574755 16.87903367 -18.92749023 15.85205078 C-3.20663948 0 -3.20663948 0 0 0 Z " fill="#ACACAC" transform="translate(92,55)"/>
<path d="M0 0 C0 1.98 0 3.96 0 6 C-0.99 6.33 -1.98 6.66 -3 7 C-3.2475 7.5775 -3.495 8.155 -3.75 8.75 C-5.63508209 12.14314777 -8.66700943 14.08195826 -12 16 C-12.66 16 -13.32 16 -14 16 C-14.66888843 11.54074377 -13.78482735 9.26440836 -11.1875 5.75 C-7.86097247 1.51175751 -5.50596656 -0.29761981 0 0 Z " fill="#0B0B0B" transform="translate(283,372)"/>
<path d="M0 0 C2.04064539 1.24185834 4.01530398 2.55092974 5.98681641 3.8996582 C6.67517578 4.34696289 7.36353516 4.79426758 8.07275391 5.25512695 C9.81331425 6.425861 11.47097335 7.717829 13.11181641 9.0246582 C13.11181641 10.0146582 13.11181641 11.0046582 13.11181641 12.0246582 C12.34869141 11.7152832 11.58556641 11.4059082 10.79931641 11.0871582 C8.92391964 10.34572227 7.02496989 9.66237603 5.11181641 9.0246582 C4.78181641 9.6846582 4.45181641 10.3446582 4.11181641 11.0246582 C3.18369141 10.1171582 2.25556641 9.2096582 1.29931641 8.2746582 C-3.19221702 4.37460243 -8.27248677 2.75100262 -13.88818359 1.0246582 C-13.88818359 0.6946582 -13.88818359 0.3646582 -13.88818359 0.0246582 C-8.77870207 -2.04346527 -5.04993508 -2.60854547 0 0 Z " fill="#A6A6A6" transform="translate(381.88818359375,34.975341796875)"/>
<path d="M0 0 C31.32040447 -0.61916858 31.32040447 -0.61916858 45 3 C44.67 3.99 44.34 4.98 44 6 C38.69075855 5.54457974 33.4452618 4.93421769 28.1875 4.0625 C18.84767805 2.56947558 9.41726758 1.83073896 0 1 C0 0.67 0 0.34 0 0 Z " fill="#DCDCDC" transform="translate(256,0)"/>
<path d="M0 0 C1.39025391 0.01353516 1.39025391 0.01353516 2.80859375 0.02734375 C5.08100077 0.05077063 7.3528618 0.08357252 9.625 0.125 C9.625 0.785 9.625 1.445 9.625 2.125 C10.615 2.455 11.605 2.785 12.625 3.125 C11.99851562 3.31835938 11.37203125 3.51171875 10.7265625 3.7109375 C9.90929687 3.97132813 9.09203125 4.23171875 8.25 4.5 C7.43789063 4.75523437 6.62578125 5.01046875 5.7890625 5.2734375 C3.46040815 6.02354283 3.46040815 6.02354283 1.625 8.125 C1.274375 7.650625 0.92375 7.17625 0.5625 6.6875 C-4.36028208 2.71751446 -11.35712274 4.24826742 -17.21484375 4.87109375 C-17.92769531 4.95488281 -18.64054687 5.03867187 -19.375 5.125 C-14.462873 -0.87871078 -7.05383227 -0.13081287 0 0 Z " fill="#A8A8A8" transform="translate(374.375,364.875)"/>
<path d="M0 0 C2 2 2 2 2.04907227 4.28417969 C1.95166748 5.23711914 1.8542627 6.19005859 1.75390625 7.171875 C1.64449707 8.25017578 1.53508789 9.32847656 1.42236328 10.43945312 C0.67711917 16.72190409 -0.17178435 22.9866638 -1.0625 29.25 C-1.25095615 30.59240512 -1.43910885 31.93485287 -1.62695312 33.27734375 C-2.08166998 36.51865878 -2.5394057 39.75951587 -3 43 C-3.33 43 -3.66 43 -4 43 C-4.49835793 28.07034645 -3.82243109 14.47063199 0 0 Z " fill="#E1E1E1" transform="translate(4,195)"/>
<path d="M0 0 C0.85827393 0.12060791 0.85827393 0.12060791 1.73388672 0.24365234 C14.4711769 2.02621182 27.20864333 3.65769714 40 5 C40 5.33 40 5.66 40 6 C13.24874212 6.61916858 13.24874212 6.61916858 0 3 C0 2.01 0 1.02 0 0 Z " fill="#DCDCDC" transform="translate(194,493)"/>
<path d="M0 0 C0.66 0.33 1.32 0.66 2 1 C-9.22 12.22 -20.44 23.44 -32 35 C-32.66 34.67 -33.32 34.34 -34 34 C-31.6478496 31.477279 -29.29290413 28.95718302 -26.9375 26.4375 C-26.28072266 25.73302734 -25.62394531 25.02855469 -24.94726562 24.30273438 C-13.91241978 12.50686468 -13.91241978 12.50686468 -7.8125 7.3125 C-5.09640309 4.97085529 -2.48593752 2.58951825 0 0 Z " fill="#1E1E1E" transform="translate(63,175)"/>
<path d="M0 0 C3.80602792 0.36582893 6.7423886 1.32726534 10.11328125 3.140625 C9.24316406 3.39585937 9.24316406 3.39585937 8.35546875 3.65625 C-0.17129962 6.30151807 -5.0035639 9.67227053 -9.88671875 17.140625 C-10.21671875 16.480625 -10.54671875 15.820625 -10.88671875 15.140625 C-5.16733729 0.38514315 -5.16733729 0.38514315 0 0 Z " fill="#0D0D0D" transform="translate(372.88671875,374.859375)"/>
<path d="M0 0 C0 0.33 0 0.66 0 1 C12.87 1.495 12.87 1.495 26 2 C26 2.33 26 2.66 26 3 C19.62828282 3.19331179 13.25626754 3.37078672 6.88378906 3.53710938 C4.71474153 3.59560931 2.54578964 3.65777217 0.37695312 3.72363281 C-2.73549998 3.81751851 -5.8480562 3.89834624 -8.9609375 3.9765625 C-9.934935 4.00875885 -10.9089325 4.0409552 -11.91244507 4.0741272 C-12.81322784 4.09429901 -13.71401062 4.11447083 -14.64208984 4.13525391 C-15.83455826 4.16856308 -15.83455826 4.16856308 -17.05111694 4.20254517 C-19 4 -19 4 -21 2 C-13.94546999 0.79556805 -7.16562789 -0.28100502 0 0 Z " fill="#1D1D1D" transform="translate(196,405)"/>
<path d="M0 0 C2.29790465 3.44685697 2.15669467 5.09782016 1.625 9.10546875 C0.30321617 15.22698009 -1.89708374 21.1102825 -4 27 C-4.99 27 -5.98 27 -7 27 C-6.31115236 23.37030282 -5.46387675 19.81634398 -4.5 16.25 C-4.2421875 15.28578125 -3.984375 14.3215625 -3.71875 13.328125 C-3 11 -3 11 -2 10 C-1.6068352 8.32115762 -1.25914548 6.63149955 -0.9375 4.9375 C-0.76089844 4.01839844 -0.58429688 3.09929687 -0.40234375 2.15234375 C-0.26957031 1.44207031 -0.13679688 0.73179687 0 0 Z " fill="#D2D2D2" transform="translate(491,310)"/>
<path d="M0 0 C0 0.99 0 1.98 0 3 C-3.95706104 4.17101244 -7.91584968 5.33607272 -11.875 6.5 C-13.00292969 6.83386719 -14.13085938 7.16773438 -15.29296875 7.51171875 C-16.90751953 7.98544922 -16.90751953 7.98544922 -18.5546875 8.46875 C-20.04718018 8.90864258 -20.04718018 8.90864258 -21.56982422 9.35742188 C-24 10 -24 10 -26 10 C-26 9.01 -26 8.02 -26 7 C-22.04293896 5.82898756 -18.08415032 4.66392728 -14.125 3.5 C-12.99707031 3.16613281 -11.86914062 2.83226562 -10.70703125 2.48828125 C-9.63066406 2.17246094 -8.55429687 1.85664063 -7.4453125 1.53125 C-5.95281982 1.09135742 -5.95281982 1.09135742 -4.43017578 0.64257812 C-2 0 -2 0 0 0 Z " fill="#D3D3D3" transform="translate(331,486)"/>
<path d="M0 0 C0.66 0 1.32 0 2 0 C3.00620969 3.60246263 4.00389587 7.20723123 5 10.8125 C5.28617188 11.83666016 5.57234375 12.86082031 5.8671875 13.91601562 C6.27324219 15.39038086 6.27324219 15.39038086 6.6875 16.89453125 C6.93886719 17.80050049 7.19023437 18.70646973 7.44921875 19.63989258 C8 22 8 22 8 25 C7.01 24.67 6.02 24.34 5 24 C4.09277344 22.11401367 4.09277344 22.11401367 3.359375 19.66796875 C2.96105469 18.34635742 2.96105469 18.34635742 2.5546875 16.99804688 C2.15636719 15.60682617 2.15636719 15.60682617 1.75 14.1875 C1.46898437 13.27162109 1.18796875 12.35574219 0.8984375 11.41210938 C-1.30767337 3.91460883 -1.30767337 3.91460883 0 0 Z " fill="#D0D0D0" transform="translate(7,310)"/>
<path d="M0 0 C0.66 0.33 1.32 0.66 2 1 C-3.42051852 4.96029721 -8.85246546 8.90116202 -14.32714844 12.78613281 C-20.33380307 17.0504987 -26.2427625 21.40030232 -32 26 C-32.99 25.34 -33.98 24.68 -35 24 C-34.26233398 23.49569458 -34.26233398 23.49569458 -33.50976562 22.98120117 C-22.32896076 15.3365724 -11.15711073 7.67917 0 0 Z " fill="#424242" transform="translate(145,113)"/>
<path d="M0 0 C-0.48 4.56 -0.48 4.56 -2.625 6.375 C-6.00232327 7.26376928 -8.61524586 6.73849181 -12 6 C-12.99 5.34 -13.98 4.68 -15 4 C-15 3.01 -15 2.02 -15 1 C-13.84371094 1.01740234 -13.84371094 1.01740234 -12.6640625 1.03515625 C-11.15972656 1.04869141 -11.15972656 1.04869141 -9.625 1.0625 C-8.12839844 1.07990234 -8.12839844 1.07990234 -6.6015625 1.09765625 C-4.04433149 1.00166409 -2.49131904 0 0 0 Z " fill="#212121" transform="translate(248,164)"/>
<path d="M0 0 C1.32 0.66 2.64 1.32 4 2 C4.375 4.75 4.375 4.75 4 8 C-0.84210526 12 -0.84210526 12 -4 12 C-3.91253716 10.56138706 -3.80434652 9.12402492 -3.6875 7.6875 C-3.62949219 6.88699219 -3.57148438 6.08648437 -3.51171875 5.26171875 C-2.91793306 2.63727666 -2.04219706 1.69179328 0 0 Z " fill="#1A1A1A" transform="translate(290,376)"/>
<path d="M0 0 C-4.92798446 1.67199473 -9.8637765 3.25802612 -14.85083008 4.74609375 C-23.13851038 7.24393679 -30.75039717 10.16693145 -38 15 C-38 14.01 -38 13.02 -38 12 C-29.6534281 7.4173454 -21.45017162 3.4972936 -12.25 0.9375 C-11.4883252 0.72198486 -10.72665039 0.50646973 -9.94189453 0.28442383 C-6.22965394 -0.68715541 -3.66021553 -1.12976492 0 0 Z " fill="#4E4E4E" transform="translate(143,413)"/>
<path d="M0 0 C0.33 0.99 0.66 1.98 1 3 C1.66 3 2.32 3 3 3 C2.54917531 4.46067199 2.08906463 5.91848032 1.625 7.375 C1.36976563 8.18710938 1.11453125 8.99921875 0.8515625 9.8359375 C0 12 0 12 -2 14 C-4.125 13.625 -4.125 13.625 -6 13 C-6.33 11.02 -6.66 9.04 -7 7 C-5.824375 6.6596875 -5.824375 6.6596875 -4.625 6.3125 C-1.78125 5.21875 -1.78125 5.21875 -0.6875 2.375 C-0.460625 1.59125 -0.23375 0.8075 0 0 Z " fill="#161616" transform="translate(265,160)"/>
<path d="M0 0 C11.385 2.97 11.385 2.97 23 6 C22.01 6.495 22.01 6.495 21 7 C21 7.66 21 8.32 21 9 C18.45757096 8.37798054 15.91608125 7.75248241 13.375 7.125 C12.30572266 6.86396484 12.30572266 6.86396484 11.21484375 6.59765625 C7.07203784 5.57145662 3.03273322 4.41209271 -1 3 C-0.67 2.01 -0.34 1.02 0 0 Z " fill="#D5D5D5" transform="translate(170,486)"/>
<path d="M0 0 C0.33 0.99 0.66 1.98 1 3 C-1.18573562 3.65177969 -3.3736823 4.29614674 -5.5625 4.9375 C-6.78066406 5.29714844 -7.99882812 5.65679688 -9.25390625 6.02734375 C-12.87201619 6.96676959 -16.29853486 7.54743991 -20 8 C-19.67 7.01 -19.34 6.02 -19 5 C-16.35969246 3.95155573 -13.84287551 3.09477547 -11.125 2.3125 C-10.39152344 2.08755859 -9.65804687 1.86261719 -8.90234375 1.63085938 C-5.8474806 0.71551331 -3.20488959 0 0 0 Z " fill="#D6D6D6" transform="translate(189,6)"/>
<path d="M0 0 C0.66 0.66 1.32 1.32 2 2 C-3.53733825 8.37701659 -8.91066157 14.30677875 -16 19 C-16 13.77719767 -11.50919035 10.58625028 -8 7 C-5.39703481 4.58610154 -2.73530762 2.26244859 0 0 Z " fill="#9C9C9C" transform="translate(435,417)"/>
<path d="M0 0 C2.875 2.5625 2.875 2.5625 5 5 C4.01 5.495 4.01 5.495 3 6 C2.34 5.67 1.68 5.34 1 5 C0.67 5.66 0.34 6.32 0 7 C-4 5 -8 3 -12 1 C-7.5703672 -0.79294661 -4.60908439 -1.47098438 0 0 Z " fill="#989898" transform="translate(380,34)"/>
<path d="M0 0 C9.9 0 19.8 0 30 0 C30 0.33 30 0.66 30 1 C26.70913156 1.34153092 23.41720923 1.67166646 20.125 2 C19.2071875 2.09539062 18.289375 2.19078125 17.34375 2.2890625 C11.20690947 2.89410312 5.16533625 3.12065893 -1 3 C-0.67 2.01 -0.34 1.02 0 0 Z " fill="#E2E2E2" transform="translate(216,0)"/>
<path d="M0 0 C-3.63262555 3.63262555 -8.77502182 5.1562935 -13.4375 7.1875 C-15.03174805 7.90196289 -15.03174805 7.90196289 -16.65820312 8.63085938 C-18.18670898 9.29891602 -18.18670898 9.29891602 -19.74609375 9.98046875 C-20.68122803 10.39192139 -21.6163623 10.80337402 -22.57983398 11.22729492 C-25 12 -25 12 -28 11 C-3.76060458 -1.25353486 -3.76060458 -1.25353486 0 0 Z " fill="#3B3B3B" transform="translate(243,63)"/>
<path d="M0 0 C0.99 0.33 1.98 0.66 3 1 C-7.70139494 10.77927928 -7.70139494 10.77927928 -13 14 C-15.19921875 13.62109375 -15.19921875 13.62109375 -17 13 C-14.91689914 11.39553069 -12.83352773 9.79141482 -10.75 8.1875 C-10.16347656 7.73568359 -9.57695313 7.28386719 -8.97265625 6.81835938 C-7.82985721 5.93878933 -6.68473402 5.06222928 -5.53710938 4.18896484 C-4.25396758 3.1964457 -3.00506142 2.1598683 -1.765625 1.11328125 C-1.18296875 0.74589844 -0.6003125 0.37851563 0 0 Z " fill="#2C2C2C" transform="translate(109,138)"/>
<path d="M0 0 C0.66 0.33 1.32 0.66 2 1 C1.50628906 1.45890625 1.01257813 1.9178125 0.50390625 2.390625 C-0.13675781 3.00421875 -0.77742187 3.6178125 -1.4375 4.25 C-2.07558594 4.85328125 -2.71367187 5.4565625 -3.37109375 6.078125 C-5.13142327 8.15506055 -5.43621372 9.39120712 -6 12 C-7.12109375 13.81640625 -7.12109375 13.81640625 -8.4375 15.5625 C-10.020946 17.68479031 -11.52858389 19.79287584 -13 22 C-12.59958726 12.59030057 -6.64372069 6.16916921 0 0 Z " fill="#9E9E9E" transform="translate(247,357)"/>
<path d="M0 0 C1.58167969 0.02126953 1.58167969 0.02126953 3.1953125 0.04296875 C4.24460937 0.04941406 5.29390625 0.05585938 6.375 0.0625 C8.86097954 0.20427337 10.94878836 0.51442885 13.3203125 1.23046875 C12.9903125 2.22046875 12.6603125 3.21046875 12.3203125 4.23046875 C6.62979887 3.69233165 0.97165366 3.09045545 -4.6796875 2.23046875 C-2.6796875 0.23046875 -2.6796875 0.23046875 0 0 Z " fill="#D7D7D7" transform="translate(287.6796875,1.76953125)"/>
<path d="M0 0 C2.53605069 2.53605069 2.79250373 4.46876556 3.625 7.9375 C3.88539063 8.99839844 4.14578125 10.05929688 4.4140625 11.15234375 C5 14 5 14 5 17 C4.01 16.67 3.02 16.34 2 16 C1.015625 13.671875 1.015625 13.671875 0.25 10.75 C-0.01296875 9.79609375 -0.2759375 8.8421875 -0.546875 7.859375 C-1.01648367 4.89598234 -0.77657937 2.87544255 0 0 Z " fill="#E3E3E3" transform="translate(491,180)"/>
<path d="M0 0 C4 4.75 4 4.75 4 7 C2.081875 7.12375 2.081875 7.12375 0.125 7.25 C-2.05333418 7.45869931 -2.05333418 7.45869931 -4 8 C-5.5899433 9.92064793 -5.5899433 9.92064793 -6 12 C-6.33 11.34 -6.66 10.68 -7 10 C-6.02223933 8.51990357 -5.0427506 7.04094856 -4.0625 5.5625 C-3.51722656 4.73878906 -2.97195313 3.91507813 -2.41015625 3.06640625 C-1 1 -1 1 0 0 Z " fill="#373737" transform="translate(308,159)"/>
<path d="M0 0 C16.8929385 -0.18451025 16.8929385 -0.18451025 24 1 C24 1.99 24 2.98 24 4 C12.12 2.515 12.12 2.515 0 1 C0 0.67 0 0.34 0 0 Z " fill="#C0C0C0" transform="translate(296,413)"/>
<path d="M0 0 C0.99 0 1.98 0 3 0 C3.28100502 7.16562789 2.20443195 13.94546999 1 21 C0.67 21 0.34 21 0 21 C0 14.07 0 7.14 0 0 Z " fill="#D7D7D7" transform="translate(0,217)"/>
<path d="M0 0 C1.45839897 3.95705456 0.67906093 7.69831388 0.0625 11.75 C-0.03740234 12.44738281 -0.13730469 13.14476562 -0.24023438 13.86328125 C-0.48665873 15.57651726 -0.74240955 17.28840725 -1 19 C-1.99 19 -2.98 19 -4 19 C-3.46048934 12.31006781 -2.11293829 6.36539272 0 0 Z " fill="#D6D6D6" transform="translate(9,175)"/>
<path d="M0 0 C2.16965398 3.25448097 3.36143262 6.5253585 4.625 10.1875 C4.85445313 10.84169922 5.08390625 11.49589844 5.3203125 12.16992188 C5.88395144 13.77864135 6.44247984 15.38914977 7 17 C6.34 17.66 5.68 18.32 5 19 C3.96520787 16.58848443 2.9470628 14.17205531 1.9375 11.75 C1.49567383 10.72712891 1.49567383 10.72712891 1.04492188 9.68359375 C-0.48321625 5.98010605 -1.24129373 3.8159653 0 0 Z " fill="#D1D1D1" transform="translate(482,153)"/>
<path d="M0 0 C1 2 1 2 -0.1875 5.8125 C-1.61153608 9.3987193 -3.28900556 12.20155412 -6 15 C-6.66 15 -7.32 15 -8 15 C-7.4520917 10.7170548 -5.97567196 8.14864359 -3.4375 4.6875 C-2.79683594 3.80449219 -2.15617187 2.92148438 -1.49609375 2.01171875 C-0.75552734 1.01591797 -0.75552734 1.01591797 0 0 Z " fill="#AAAAAA" transform="translate(44,105)"/>
<path d="M0 0 C-2.83202961 1.88801974 -5.26025619 2.96101651 -8.4375 4.125 C-9.38496094 4.47820313 -10.33242187 4.83140625 -11.30859375 5.1953125 C-14 6 -14 6 -18 6 C-18 5.34 -18 4.68 -18 4 C-16.13360019 3.12720138 -14.25639389 2.27748973 -12.375 1.4375 C-11.33085937 0.96183594 -10.28671875 0.48617187 -9.2109375 -0.00390625 C-5.65559246 -1.10684175 -3.57136768 -0.89552313 0 0 Z " fill="#282828" transform="translate(260,57)"/>
<path d="M0 0 C0.66 0.99 1.32 1.98 2 3 C-0.31 5.64 -2.62 8.28 -5 11 C-5.99 10.67 -6.98 10.34 -8 10 C-7.04367001 8.70684939 -6.08486149 7.41553147 -5.125 6.125 C-4.59132813 5.40570313 -4.05765625 4.68640625 -3.5078125 3.9453125 C-2 2 -2 2 0 0 Z " fill="#ACACAC" transform="translate(443,407)"/>
<path d="M0 0 C4.455 0.99 4.455 0.99 9 2 C8.071875 2.8971875 8.071875 2.8971875 7.125 3.8125 C4.86323046 6.00811144 4.86323046 6.00811144 3 9 C3 8.01 3 7.02 3 6 C1.02 6 -0.96 6 -3 6 C-2.01 5.67 -1.02 5.34 0 5 C0 3.35 0 1.7 0 0 Z " fill="#ACACAC" transform="translate(283,373)"/>
<path d="M0 0 C4.33799214 0.16540005 7.87374805 0.42601714 11.81640625 2.4609375 C11.81640625 2.7909375 11.81640625 3.1209375 11.81640625 3.4609375 C5.87640625 3.7909375 -0.06359375 4.1209375 -6.18359375 4.4609375 C-2.18359375 0.4609375 -2.18359375 0.4609375 0 0 Z " fill="#A6A6A6" transform="translate(276.18359375,361.5390625)"/>
<path d="M0 0 C0 0.66 0 1.32 0 2 C-2.34852528 3.17426264 -3.73774065 3.11508173 -6.3515625 3.09765625 C-7.20234375 3.09443359 -8.053125 3.09121094 -8.9296875 3.08789062 C-9.81914062 3.07951172 -10.70859375 3.07113281 -11.625 3.0625 C-12.5221875 3.05798828 -13.419375 3.05347656 -14.34375 3.04882812 C-16.56256648 3.03702591 -18.78125018 3.02056155 -21 3 C-21 2.67 -21 2.34 -21 2 C-13.94546999 0.79556805 -7.16562789 -0.28100502 0 0 Z " fill="#E1E1E1" transform="translate(293,496)"/>
<path d="M0 0 C0 4 0 4 -1.75 5.921875 C-2.4925 6.52515625 -3.235 7.1284375 -4 7.75 C-4.7425 8.36359375 -5.485 8.9771875 -6.25 9.609375 C-7.11625 10.29773438 -7.11625 10.29773438 -8 11 C-9 8 -9 8 -7.8125 5.5 C-5.70852402 2.59796417 -3.7824603 0 0 0 Z " fill="#1A1A1A" transform="translate(82,161)"/>
<path d="M0 0 C1.33417969 0.51820313 1.33417969 0.51820313 2.6953125 1.046875 C4.875 2.25 4.875 2.25 5.875 5.25 C4.28875765 4.82316761 2.7060902 4.38303842 1.125 3.9375 C0.24328125 3.69386719 -0.6384375 3.45023437 -1.546875 3.19921875 C-4.18272505 2.22874669 -5.97907326 1.03994356 -8.125 -0.75 C-4.47889269 -1.9653691 -3.48934773 -1.40387751 0 0 Z " fill="#CFCFCF" transform="translate(162.125,482.75)"/>
<path d="M0 0 C-0.66 0.66 -1.32 1.32 -2 2 C-2.99 2 -3.98 2 -5 2 C-5 2.66 -5 3.32 -5 4 C-4.01 4.33 -3.02 4.66 -2 5 C-2 5.33 -2 5.66 -2 6 C-4.31 6 -6.62 6 -9 6 C-9 4.68 -9 3.36 -9 2 C-3.375 -1.125 -3.375 -1.125 0 0 Z " fill="#323232" transform="translate(209,383)"/>
<path d="M0 0 C0.6875 1.8125 0.6875 1.8125 1 4 C-0.3125 5.5 -0.3125 5.5 -2 7 C-3.17574711 9.09989652 -3.17574711 9.09989652 -4 11 C-5.65 11 -7.3 11 -9 11 C-9.33 10.34 -9.66 9.68 -10 9 C-7 7 -4 5 -1 3 C-0.67 2.01 -0.34 1.02 0 0 Z " fill="#B8B8B8" transform="translate(279,379)"/>
<path d="M0 0 C3.68237923 0.42594685 6.91393109 1.19230068 10.09375 3.1796875 C7.45375 3.8396875 4.81375 4.4996875 2.09375 5.1796875 C1.43375 4.1896875 0.77375 3.1996875 0.09375 2.1796875 C-1.22625 3.4996875 -2.54625 4.8196875 -3.90625 6.1796875 C-4.56625 5.8496875 -5.22625 5.5196875 -5.90625 5.1796875 C-3.04209427 0.28675479 -3.04209427 0.28675479 0 0 Z " fill="#282828" transform="translate(372.90625,374.8203125)"/>
<path d="M0 0 C0.99 0.33 1.98 0.66 3 1 C1.515 7.435 1.515 7.435 0 14 C-2 12 -2 12 -2.01171875 9.43359375 C-1.90472656 8.44488281 -1.79773438 7.45617187 -1.6875 6.4375 C-1.58824219 5.44621094 -1.48898437 4.45492188 -1.38671875 3.43359375 C-1 1 -1 1 0 0 Z " fill="#E8E8E8" transform="translate(494,301)"/>
<path d="M0 0 C0.625 1.875 0.625 1.875 1 4 C0.34 4.66 -0.32 5.32 -1 6 C-1.28875 7.155 -1.5775 8.31 -1.875 9.5 C-3 13 -3 13 -5 14.375 C-5.66 14.58125 -6.32 14.7875 -7 15 C-7.99 15.495 -7.99 15.495 -9 16 C-7.62018779 11.58460093 -5.17889697 8.43509301 -2.33984375 4.8671875 C-0.81385317 2.93516371 -0.81385317 2.93516371 0 0 Z " fill="#A3A3A3" transform="translate(38,218)"/>
<path d="M0 0 C0.66 0.99 1.32 1.98 2 3 C0.7391988 4.03319813 -0.53403258 5.05124379 -1.8125 6.0625 C-2.87404297 6.91521484 -2.87404297 6.91521484 -3.95703125 7.78515625 C-4.63121094 8.18605469 -5.30539062 8.58695312 -6 9 C-6.99 8.67 -7.98 8.34 -9 8 C-6.03 5.36 -3.06 2.72 0 0 Z " fill="#ACACAC" transform="translate(409,441)"/>
<path d="M0 0 C0 1.98 0 3.96 0 6 C-0.33 4.68 -0.66 3.36 -1 2 C-4.93673644 3.31224548 -7.22719294 4.91910327 -10 8 C-10.66 7.67 -11.32 7.34 -12 7 C-8.35652318 2.225789 -6.21818523 -0.33611812 0 0 Z " fill="#353535" transform="translate(283,372)"/>
<path d="M0 0 C-1.05849313 3.06963007 -1.81506191 3.90332782 -4.75 5.4375 C-5.8225 5.953125 -6.895 6.46875 -8 7 C-10.09819595 8.57602049 -12.02833531 10.2630573 -14 12 C-12.56394807 8.61181498 -10.79533421 6.6813402 -8 4.3125 C-7.29875 3.71050781 -6.5975 3.10851562 -5.875 2.48828125 C-3.78952321 0.83293405 -2.68454235 0 0 0 Z " fill="#9B9B9B" transform="translate(218,163)"/>
<path d="M0 0 C1.33998047 0.31324219 1.33998047 0.31324219 2.70703125 0.6328125 C3.60808594 0.83648437 4.50914062 1.04015625 5.4375 1.25 C6.46810547 1.50136719 6.46810547 1.50136719 7.51953125 1.7578125 C6.52953125 2.2528125 6.52953125 2.2528125 5.51953125 2.7578125 C5.51953125 3.4178125 5.51953125 4.0778125 5.51953125 4.7578125 C1.88953125 3.7678125 -1.74046875 2.7778125 -5.48046875 1.7578125 C-2.48046875 -0.2421875 -2.48046875 -0.2421875 0 0 Z " fill="#DFDFDF" transform="translate(185.48046875,490.2421875)"/>
<path d="M0 0 C-3.63 1.32 -7.26 2.64 -11 4 C-10.67 2.68 -10.34 1.36 -10 0 C-5.52514869 -2.18770508 -4.61033434 -2.30516717 0 0 Z " fill="#D7D7D7" transform="translate(344,484)"/>
<path d="M0 0 C0.66 0 1.32 0 2 0 C0.68775452 3.93673644 -0.91910327 6.22719294 -4 9 C-4.33 8.01 -4.66 7.02 -5 6 C-2.6875 2.8125 -2.6875 2.8125 0 0 Z " fill="#ADADAD" transform="translate(451,397)"/>
<path d="M0 0 C-0.33 1.65 -0.66 3.3 -1 5 C-3.64 5 -6.28 5 -9 5 C-4.32258065 0 -4.32258065 0 0 0 Z " fill="#111111" transform="translate(284,46)"/>
<path d="M0 0 C0.33 0.66 0.66 1.32 1 2 C-2.3 2.66 -5.6 3.32 -9 4 C-9 3.01 -9 2.02 -9 1 C-5.92677456 0.08941469 -3.19902639 -0.08886184 0 0 Z " fill="#E2E2E2" transform="translate(303,494)"/>
<path d="M0 0 C0.33 0 0.66 0 1 0 C1 1.65 1 3.3 1 5 C1.66 5 2.32 5 3 5 C2.67 6.98 2.34 8.96 2 11 C1.01 11 0.02 11 -1 11 C-0.67 7.37 -0.34 3.74 0 0 Z " fill="#D3D3D3" transform="translate(495,290)"/>
<path d="M0 0 C6.625 0.75 6.625 0.75 10 3 C3.6 4.23076923 3.6 4.23076923 0.5625 3.0625 C0.046875 2.711875 -0.46875 2.36125 -1 2 C-0.67 1.34 -0.34 0.68 0 0 Z " fill="#DFDFDF" transform="translate(311,6)"/>
<path d="M0 0 C0 0.66 0 1.32 0 2 C-1.96875 3.5078125 -1.96875 3.5078125 -4.5 5.125 C-5.3353125 5.66382813 -6.170625 6.20265625 -7.03125 6.7578125 C-7.6809375 7.16773438 -8.330625 7.57765625 -9 8 C-9.66 7.34 -10.32 6.68 -11 6 C-9.54550599 4.9944239 -8.08627557 3.99569565 -6.625 3 C-5.40683594 2.1646875 -5.40683594 2.1646875 -4.1640625 1.3125 C-2 0 -2 0 0 0 Z " fill="#373737" transform="translate(121,131)"/>
<path d="M0 0 C-3.63 1.98 -7.26 3.96 -11 6 C-9 1 -9 1 -6.0625 -0.375 C-3 -1 -3 -1 0 0 Z " fill="#4E4E4E" transform="translate(390,394)"/>
<path d="M0 0 C2.64 0.33 5.28 0.66 8 1 C7.01 2.485 7.01 2.485 6 4 C3.69 3.67 1.38 3.34 -1 3 C-0.67 2.01 -0.34 1.02 0 0 Z " fill="#D9D9D9" transform="translate(302,4)"/>
<path d="M0 0 C0 0.66 0 1.32 0 2 C-3.96 3.98 -3.96 3.98 -8 6 C-6.65038535 0.6015414 -5.51062674 0 0 0 Z " fill="#BCBCBC" transform="translate(375,467)"/>
<path d="M0 0 C0.33 0 0.66 0 1 0 C1 4.62 1 9.24 1 14 C1.66 14.33 2.32 14.66 3 15 C1.68 15.33 0.36 15.66 -1 16 C-0.67 10.72 -0.34 5.44 0 0 Z " fill="#434343" transform="translate(408,395)"/>
<path d="M0 0 C3.93846154 3.32307692 3.93846154 3.32307692 4.25 6.75 C4.1675 7.4925 4.085 8.235 4 9 C3.38125 8.21625 2.7625 7.4325 2.125 6.625 C0.10141339 4.03162353 0.10141339 4.03162353 -2 2 C-1.34 1.34 -0.68 0.68 0 0 Z " fill="#A7A7A7" transform="translate(402,379)"/>
<path d="M0 0 C0.66 0.33 1.32 0.66 2 1 C-0.64 3.64 -3.28 6.28 -6 9 C-6.66 8.67 -7.32 8.34 -8 8 C-5.33333333 5.33333333 -2.66666667 2.66666667 0 0 Z " fill="#212121" transform="translate(240,353)"/>
<path d="M0 0 C1.37871915 3.82977542 0.87113444 7.07989501 0 11 C-0.99 11.66 -1.98 12.32 -3 13 C-2.68991116 11.39536551 -2.37683713 9.79130769 -2.0625 8.1875 C-1.88847656 7.29417969 -1.71445313 6.40085938 -1.53515625 5.48046875 C-1 3 -1 3 0 0 Z " fill="#EDEDED" transform="translate(9,175)"/>
<path d="M0 0 C0 0.99 0 1.98 0 3 C-3 5.1875 -3 5.1875 -6 7 C-6.66 6.67 -7.32 6.34 -8 6 C-4.55384615 1.2 -4.55384615 1.2 -1.75 0.1875 C-1.1725 0.125625 -0.595 0.06375 0 0 Z " fill="#A2A2A2" transform="translate(113,40)"/>
<path d="M0 0 C2.97 0.99 5.94 1.98 9 3 C9 3.99 9 4.98 9 6 C5.59687262 4.94124926 2.98646769 3.99097846 0 2 C0 1.34 0 0.68 0 0 Z " fill="#A4A4A4" transform="translate(364,27)"/>
<path d="M0 0 C-0.33 0.99 -0.66 1.98 -1 3 C-2.98 3.33 -4.96 3.66 -7 4 C-7 3.01 -7 2.02 -7 1 C-4.53721199 -0.231394 -2.7204945 -0.07159196 0 0 Z " fill="#E0E0E0" transform="translate(312,492)"/>
<path d="M0 0 C0.99 0.33 1.98 0.66 3 1 C1.68 3.31 0.36 5.62 -1 8 C-1.66 6.68 -2.32 5.36 -3 4 C-2.01 2.68 -1.02 1.36 0 0 Z " fill="#C1C1C1" transform="translate(461,382)"/>
<path d="M0 0 C0.66 0.33 1.32 0.66 2 1 C-0.64 3.64 -3.28 6.28 -6 9 C-6 6 -6 6 -3.5625 3.375 C-2.716875 2.59125 -1.87125 1.8075 -1 1 C-0.67 0.67 -0.34 0.34 0 0 Z " fill="#D6D6D6" transform="translate(372,381)"/>
<path d="M0 0 C-2.58926331 2.58926331 -4.02705279 2.37398043 -7.625 2.625 C-8.62789063 2.69976562 -9.63078125 2.77453125 -10.6640625 2.8515625 C-11.82035156 2.92503906 -11.82035156 2.92503906 -13 3 C-12 1 -12 1 -10.0390625 0.33203125 C-9.24242187 0.16058594 -8.44578125 -0.01085937 -7.625 -0.1875 C-6.43777344 -0.45626953 -6.43777344 -0.45626953 -5.2265625 -0.73046875 C-3 -1 -3 -1 0 0 Z " fill="#BABABA" transform="translate(368,367)"/>
<path d="M0 0 C0.66 0 1.32 0 2 0 C1.45276317 3.37462715 0.9451 5.08235 -1 8 C-1.66 7.67 -2.32 7.34 -3 7 C-2.01 4.69 -1.02 2.38 0 0 Z " fill="#D0D0D0" transform="translate(13,165)"/>
<path d="M0 0 C2.475 0.99 2.475 0.99 5 2 C5 2.99 5 3.98 5 5 C3.35 4.67 1.7 4.34 0 4 C-0.33 3.01 -0.66 2.02 -1 1 C-0.67 0.67 -0.34 0.34 0 0 Z " fill="#AAAAAA" transform="translate(397,47)"/>
<path d="M0 0 C0.33 0.99 0.66 1.98 1 3 C-1.64 3.66 -4.28 4.32 -7 5 C-6.67 3.68 -6.34 2.36 -6 1 C-3 0 -3 0 0 0 Z " fill="#C9C9C9" transform="translate(189,6)"/>
<path d="M0 0 C0.75 1.75 0.75 1.75 1 4 C-0.9375 6.25 -0.9375 6.25 -3 8 C-3.33 7.01 -3.66 6.02 -4 5 C-2.0625 2.3125 -2.0625 2.3125 0 0 Z " fill="#AEAEAE" transform="translate(458,387)"/>
<path d="M0 0 C0.66 0.33 1.32 0.66 2 1 C-0.31 3.31 -2.62 5.62 -5 8 C-5.66 7.67 -6.32 7.34 -7 7 C-4.66666667 4.66666667 -2.33333333 2.33333333 0 0 Z " fill="#D3D3D3" transform="translate(346,374)"/>
<path d="M0 0 C2 2 2 2 2.125 4.625 C2.08375 5.40875 2.0425 6.1925 2 7 C1.34 7 0.68 7 0 7 C-0.33 7.99 -0.66 8.98 -1 10 C-1.125 3.375 -1.125 3.375 0 0 Z " fill="#D9D9D9" transform="translate(4,195)"/>
<path d="M0 0 C3.52069985 0.58678331 5.71299843 1.35649921 9 3 C5.7 3 2.4 3 -1 3 C-0.67 2.01 -0.34 1.02 0 0 Z " fill="#DCDCDC" transform="translate(216,0)"/>
<path d="M0 0 C0 0.99 0 1.98 0 3 C-2.64 3.66 -5.28 4.32 -8 5 C-7.25 3.0625 -7.25 3.0625 -6 1 C-3.86997684 0.20124132 -2.26695035 0 0 0 Z " fill="#DBDBDB" transform="translate(331,486)"/>
<path d="M0 0 C1.32 0 2.64 0 4 0 C4 1.98 4 3.96 4 6 C3.01 5.67 2.02 5.34 1 5 C0.67 3.35 0.34 1.7 0 0 Z " fill="#CFCFCF" transform="translate(3,301)"/>
<path d="M0 0 C2 1 2 1 3 3 C0.69 3.33 -1.62 3.66 -4 4 C-3.67 3.01 -3.34 2.02 -3 1 C-2.01 0.67 -1.02 0.34 0 0 Z " fill="#C8C8C8" transform="translate(173,10)"/>
<path d="M0 0 C0 0.66 0 1.32 0 2 C-3.3 1.67 -6.6 1.34 -10 1 C-10 0.67 -10 0.34 -10 0 C-6.33694766 -0.74926071 -3.57644848 -1.2380014 0 0 Z " fill="#ECECEC" transform="translate(213,2)"/>
<path d="M0 0 C3.3 0.33 6.6 0.66 10 1 C10 1.33 10 1.66 10 2 C6.7 2.33 3.4 2.66 0 3 C0 2.01 0 1.02 0 0 Z " fill="#F1F1F1" transform="translate(281,0)"/>
<path d="M0 0 C0.66 0.66 1.32 1.32 2 2 C-0.97 4.475 -0.97 4.475 -4 7 C-4 4 -4 4 -2 1.8125 C-1.34 1.214375 -0.68 0.61625 0 0 Z " fill="#A5A5A5" transform="translate(423,429)"/>
<path d="M0 0 C-0.33 0.99 -0.66 1.98 -1 3 C-2.65 3.33 -4.3 3.66 -6 4 C-6.33 3.01 -6.66 2.02 -7 1 C-4 0 -4 0 0 0 Z " fill="#A9A9A9" transform="translate(388,385)"/>
<path d="M0 0 C0.66 1.32 1.32 2.64 2 4 C0.35 5.65 -1.3 7.3 -3 9 C-2.01 6.03 -1.02 3.06 0 0 Z " fill="#4F4F4F" transform="translate(365,383)"/>
<path d="M0 0 C1.11375 0.185625 1.11375 0.185625 2.25 0.375 C-0.63087546 2.77572955 -3.31404834 4.84791037 -6.75 6.375 C-3.42692308 0.46730769 -3.42692308 0.46730769 0 0 Z " fill="#2E2E2E" transform="translate(373.75,374.625)"/>
<path d="M0 0 C0.99 0 1.98 0 3 0 C3 2.31 3 4.62 3 7 C2.34 7 1.68 7 1 7 C0.67 4.69 0.34 2.38 0 0 Z " fill="#E4E4E4" transform="translate(0,281)"/>
<path d="M0 0 C0.33 0 0.66 0 1 0 C1 2.31 1 4.62 1 7 C-0.32 7.33 -1.64 7.66 -3 8 C-2.01 5.36 -1.02 2.72 0 0 Z " fill="#BDBDBD" transform="translate(241,261)"/>
<path d="M0 0 C0.66 0.33 1.32 0.66 2 1 C0.1875 3 0.1875 3 -2 5 C-2.99 5 -3.98 5 -5 5 C-4.1875 3.0625 -4.1875 3.0625 -3 1 C-2.01 0.67 -1.02 0.34 0 0 Z " fill="#191919" transform="translate(94,151)"/>
<path d="M0 0 C0.33 0.66 0.66 1.32 1 2 C-1.97 4.475 -1.97 4.475 -5 7 C-5.66 6.67 -6.32 6.34 -7 6 C-2.25 1.125 -2.25 1.125 0 0 Z " fill="#AFAFAF" transform="translate(129,29)"/>
</svg>
